<svg width="22" height="25" viewBox="0 0 22 25" fill="none" xmlns="http://www.w3.org/2000/svg">
<path d="M11 0C4.93468 0 0 3.96226 0 8.83563C0 13.4971 9.89722 24.2779 10.3149 24.7313C10.3927 24.8144 10.4954 24.8821 10.6146 24.9288C10.7338 24.9756 10.8659 25 11 25C11.1341 25 11.2662 24.9756 11.3854 24.9288C11.5046 24.8821 11.6073 24.8144 11.6851 24.7313C12.1139 24.2779 22 13.5141 22 8.83563C22 3.96226 17.0653 0 11 0ZM5.85924 8.83563C6.13772 3.65291 15.8846 3.65291 16.1408 8.83563C15.8623 14.0226 6.13772 14.0184 5.85924 8.83563Z" fill="#611A41"/>
</svg>
