<svg width="20" height="25" viewBox="0 0 20 25" fill="none" xmlns="http://www.w3.org/2000/svg">
<path fill-rule="evenodd" clip-rule="evenodd" d="M16.1538 0H3.84615C1.72308 0 0 1.27273 0 2.84091V22.1591C0 23.7273 1.72308 25 3.84615 25H16.1538C18.2769 25 20 23.7273 20 22.1591V2.84091C20 1.27273 18.2769 0 16.1538 0ZM10 23.8636C8.72308 23.8636 7.69231 23.1023 7.69231 22.1591C7.69231 21.2159 8.72308 20.4545 10 20.4545C11.2769 20.4545 12.3077 21.2159 12.3077 22.1591C12.3077 23.1023 11.2769 23.8636 10 23.8636ZM16.9231 19.3182H3.07692V3.40909H16.9231V19.3182Z" fill="#611A41"/>
</svg>
