<svg width="76" height="54" viewBox="0 0 76 54" fill="none" xmlns="http://www.w3.org/2000/svg">
<path d="M65.3586 37.9122L54.4264 10.9349H42.9584L59.8932 54L65.3586 37.9122Z" fill="#6A1A41"/>
<path d="M64.5475 38.9434L64.9788 39.113L75.9684 10.938H75.4679L64.5475 38.9434Z" fill="#6A1A41"/>
<path d="M75.7255 10.9349H66.4772V11.4026H75.7255V10.9349Z" fill="#6A1A41"/>
<path d="M27.1202 37.9122L16.188 10.9349H4.71704L21.6519 54L27.1202 37.9122Z" fill="#6A1A41" fill-opacity="0.8"/>
<path d="M46.488 37.9122L35.5617 10.9349H24.0804L41.0212 54L46.488 37.9122Z" fill="#6A1A41" fill-opacity="0.8"/>
<path d="M0 0.0941162H1.79733V0.210362C1.7713 0.209388 1.74525 0.21128 1.71963 0.216005C1.65615 0.22079 1.59329 0.231748 1.53194 0.24873C1.23463 0.339769 1.18884 0.463917 1.33674 0.968393C1.35731 1.02564 1.37448 1.08405 1.38817 1.14333L2.29397 3.86546L3.2054 1.24038L3.21328 1.20276L3.25757 1.05905L3.27559 0.969145C3.28338 0.860147 3.25714 0.751421 3.20052 0.658034C3.16867 0.584092 3.12768 0.514449 3.07852 0.450747C3.03091 0.379507 2.96758 0.320201 2.89344 0.277409C2.8193 0.234616 2.73633 0.209488 2.65095 0.203968V0.0948682H4.42877V0.197946C4.40925 0.203589 4.39123 0.20359 4.37096 0.211114C3.925 0.314191 3.80188 0.534639 3.95091 1.01993L4.03462 1.22195L4.93966 3.89293L5.89051 1.1388C5.91003 1.08651 5.92317 1.03385 5.94231 0.983065C6.1041 0.399588 6.03916 0.270552 5.53427 0.223152C5.51105 0.218489 5.48736 0.216595 5.4637 0.217509V0.0956202H6.84098V0.217509C6.82117 0.216682 6.80134 0.218581 6.78205 0.223152C6.45997 0.263404 6.31019 0.411249 6.09735 0.97554C6.07895 1.02708 6.05981 1.08576 6.03954 1.14369L4.80077 4.73259L4.76699 4.81761C4.75982 4.82904 4.74988 4.83845 4.7381 4.84497C4.72632 4.8515 4.71307 4.85493 4.69961 4.85493C4.68614 4.85493 4.6729 4.8515 4.66111 4.84497C4.64933 4.83845 4.63939 4.82904 4.63223 4.81761L4.61271 4.73936L3.37507 1.17755L2.14606 4.70814L2.11378 4.80595C2.11378 4.81272 2.10177 4.82476 2.07399 4.8383C2.05699 4.84218 2.0393 4.84188 2.02243 4.83743C2.00557 4.83297 1.99003 4.8245 1.97714 4.81272L1.95912 4.74087L0.75527 1.15837C0.742562 1.10689 0.725612 1.05656 0.704594 1.00789C0.484619 0.424415 0.355862 0.281459 0.0510513 0.217882C0.0386636 0.212239 0.0187692 0.212244 0 0.20472V0.0941162Z" fill="#6A1A41"/>
<path d="M6.77673 4.66149C6.79848 4.66261 6.82026 4.66032 6.8413 4.65472C7.27449 4.60957 7.40438 4.45421 7.44191 3.87713C7.44703 3.82538 7.44903 3.77337 7.44792 3.72138V0.781048C7.44191 0.734024 7.44191 0.696404 7.43553 0.656903C7.37622 0.345791 7.25385 0.228794 6.90474 0.197194C6.87721 0.191555 6.8491 0.189279 6.82103 0.190421V0.0941162H8.71446V0.203216C8.68969 0.203216 8.66341 0.210362 8.64351 0.210362C8.20356 0.255882 8.08044 0.404854 8.05491 0.968393V3.89142C8.0872 4.40267 8.17767 4.53847 8.48323 4.62199C8.51476 4.62876 8.55342 4.63516 8.58495 4.6408L8.65778 4.65472L8.70771 4.66149V4.75893H6.77673V4.66149Z" fill="#6A1A41"/>
<path d="M8.94946 4.66135C8.97468 4.66235 8.99991 4.66007 9.02454 4.65457C9.09255 4.6485 9.16004 4.63756 9.2265 4.62184C9.58048 4.53193 9.68484 4.37054 9.68484 3.7344V1.13114C9.68593 1.07689 9.6838 1.02262 9.67846 0.968624C9.65218 0.404333 9.52342 0.248967 9.07784 0.203447C9.05454 0.19844 9.03069 0.196543 9.0069 0.197804V0.0947266H10.2081L13.1102 3.59333V1.12399C13.1181 0.484461 13.0145 0.32797 12.6451 0.229784C12.577 0.213763 12.5077 0.203197 12.4379 0.198183H12.3628V0.0951054H13.9207V0.198183C13.8969 0.196922 13.873 0.198819 13.8497 0.203826C13.4743 0.241445 13.3452 0.354304 13.2806 0.657892C13.2599 0.812348 13.2514 0.968192 13.2551 1.12399V4.53306L13.2611 4.71401C13.2611 4.72116 13.2611 4.73357 13.2352 4.76592L13.2093 4.72116L13.183 4.68354L13.0926 4.52817L9.83424 0.607481V3.73554C9.8331 3.78993 9.83548 3.84434 9.84137 3.89842C9.87366 4.40403 9.98252 4.53795 10.3519 4.62335C10.4217 4.64176 10.4933 4.65273 10.5655 4.65608C10.5952 4.66169 10.6254 4.66396 10.6556 4.66285V4.76029H8.94946V4.66135Z" fill="#6A1A41"/>
<path d="M14.1755 4.66149C14.2035 4.66239 14.2314 4.66012 14.2589 4.65472C14.3265 4.64859 14.3936 4.63765 14.4597 4.62199C14.8013 4.53847 14.8985 4.40266 14.9312 3.89706C14.9312 3.84514 14.9383 3.78609 14.9383 3.73417V1.11774C14.9383 0.418017 14.8141 0.248733 14.3377 0.197194C14.3144 0.191889 14.2906 0.189611 14.2668 0.190421V0.0941162H17.8419L17.9316 1.26031L17.8614 1.27988L17.8351 1.20464L17.7954 1.08765C17.5896 0.497399 17.2075 0.238197 16.5033 0.238197H15.5401V2.25385H15.7206C15.7749 2.25499 15.8292 2.25273 15.8832 2.24708C16.4263 2.18237 16.6339 2.00142 16.6974 1.59927L16.7161 1.46346L16.7229 1.40628H16.8066V3.27145H16.7161C16.7161 3.23985 16.7094 3.20712 16.7094 3.17514C16.6388 2.59768 16.4376 2.42276 15.8625 2.37197C15.8112 2.36575 15.7595 2.36322 15.7079 2.36444H15.5393V3.32186C15.5381 3.36737 15.5405 3.41291 15.5464 3.45804C15.584 4.44894 15.6557 4.58662 16.3603 4.65584C16.5308 4.67593 16.7036 4.66704 16.8712 4.62952C17.1762 4.58291 17.4583 4.43946 17.6759 4.22027C17.8935 4.00108 18.0353 3.71769 18.0803 3.41178L18.1576 3.42381L18.0476 4.76005H14.1755V4.66149Z" fill="#6A1A41"/>
<path d="M19.7046 0.0941162H21.4948V0.203216C21.4688 0.202017 21.4428 0.204421 21.4175 0.210362C20.9775 0.255882 20.9066 0.418017 21.0935 0.975161C21.1122 1.03052 21.134 1.08479 21.1589 1.13768L22.258 3.90985L23.3184 1.13768C23.3393 1.08473 23.3566 1.03044 23.3702 0.975161C23.5328 0.463913 23.481 0.332621 23.1559 0.24873C23.1229 0.23618 23.0887 0.227106 23.0538 0.221648L22.9438 0.203216L22.8792 0.197573V0.0944951H24.2681V0.197573C24.2479 0.203216 24.2306 0.203212 24.2085 0.210735C23.9055 0.275441 23.7561 0.418395 23.523 0.987577C23.505 1.04024 23.4795 1.09179 23.4588 1.15123L22.1138 4.66826C22.1067 4.69554 22.0963 4.72182 22.0827 4.7465C22.0451 4.82362 21.9911 4.83115 21.9468 4.77923L21.907 4.66826L20.5042 1.15123C20.4455 0.991002 20.3764 0.834794 20.2973 0.683613C20.1494 0.411624 20.0721 0.327735 19.8897 0.256635C19.8468 0.236556 19.8011 0.22311 19.7542 0.216757C19.7425 0.211114 19.7226 0.211113 19.7035 0.203589L19.7046 0.0941162Z" fill="#6A1A41"/>
<path d="M23.9323 4.66149C23.9606 4.6624 23.9889 4.66013 24.0167 4.65472C24.0845 4.64856 24.1517 4.63762 24.2179 4.62199C24.5603 4.53847 24.6575 4.40266 24.6905 3.89706C24.6905 3.84514 24.6958 3.78609 24.6958 3.73417V1.11774C24.6958 0.418017 24.5734 0.248733 24.0952 0.197194C24.0718 0.191844 24.0478 0.189566 24.0238 0.190421V0.0941162H27.6005L27.6902 1.26031L27.6181 1.27988L27.5922 1.20465L27.5547 1.08765C27.3479 0.497399 26.9672 0.238197 26.2615 0.238197H25.2983V2.25385H25.4792C25.5332 2.25501 25.5873 2.25275 25.641 2.24708C26.1842 2.18237 26.3918 2.00142 26.4552 1.59927L26.4751 1.46346L26.4822 1.40628H26.5667V3.27145H26.4751C26.4751 3.23985 26.4691 3.20712 26.4691 3.17514C26.3985 2.59768 26.1969 2.42276 25.6226 2.37197C25.5709 2.36573 25.5189 2.36321 25.4668 2.36444H25.2983V3.32186C25.2972 3.36734 25.2992 3.41284 25.3043 3.45804C25.3418 4.44894 25.415 4.58662 26.12 4.65584C26.2908 4.67589 26.4638 4.667 26.6316 4.62952C26.8744 4.59736 27.1045 4.50143 27.2983 4.35146C27.4922 4.20149 27.6431 4.0028 27.7356 3.77555C27.788 3.6601 27.8231 3.53752 27.8396 3.41178L27.9169 3.42381L27.8062 4.7593H23.9323V4.66149Z" fill="#6A1A41"/>
<path d="M28.0989 4.66135C28.1241 4.66235 28.1493 4.66007 28.174 4.65457C28.2415 4.64849 28.3085 4.63755 28.3744 4.62184C28.7291 4.53193 28.8335 4.37054 28.8335 3.7344V1.13114C28.8347 1.07688 28.8324 1.0226 28.8267 0.968624C28.802 0.404333 28.671 0.248967 28.2261 0.203447C28.2027 0.198493 28.1787 0.196597 28.1548 0.197804V0.0947266H29.356L32.2592 3.59333V1.12399C32.2653 0.484461 32.162 0.32797 31.7938 0.229784C31.7258 0.213861 31.6566 0.203296 31.5869 0.198183H31.5126V0.0951054H33.0701V0.198183C33.0463 0.196978 33.0224 0.198875 32.9991 0.203826C32.6237 0.241445 32.4954 0.354304 32.4312 0.657892C32.4087 0.812181 32.3994 0.968113 32.4034 1.12399V4.53306L32.412 4.71401C32.412 4.72116 32.412 4.73357 32.3858 4.76592L32.361 4.72116L32.3336 4.68354L32.2439 4.52817L28.9852 0.607481V3.73554C28.9841 3.7899 28.9861 3.84428 28.9912 3.89842C29.0234 4.40403 29.1338 4.53795 29.5028 4.62335C29.5724 4.64195 29.6437 4.65292 29.7156 4.65608C29.7455 4.66174 29.7758 4.66401 29.8061 4.66285V4.76029H28.0996L28.0989 4.66135Z" fill="#6A1A41"/>
<path d="M33.2583 0.0941162H37.0737L37.1897 1.44165H37.0936C37.086 1.4093 37.0804 1.36979 37.0737 1.33744C36.9059 0.605367 36.5744 0.313812 35.9359 0.242336C35.8823 0.236665 35.8284 0.234407 35.7745 0.235568H35.4899V3.89706C35.5222 4.4542 35.6513 4.60957 36.1491 4.65472C36.1746 4.65472 36.202 4.66149 36.2275 4.66149V4.75893H34.1457V4.66149C34.1716 4.66263 34.1976 4.66035 34.223 4.65472C34.7136 4.60957 34.8435 4.4606 34.8754 3.89142C34.8804 3.83916 34.8824 3.78666 34.8814 3.73417V0.235568H34.5334C34.2867 0.205183 34.0371 0.2599 33.8256 0.39071C33.614 0.52152 33.4533 0.720621 33.3698 0.955225C33.3068 1.07728 33.2631 1.20838 33.2402 1.34384L33.1498 1.33744L33.2583 0.0941162Z" fill="#6A1A41"/>
<path d="M37.2876 0.0941162H39.1818V0.190421C39.1555 0.190421 39.1292 0.197194 39.1037 0.197194C38.6183 0.248733 38.5031 0.410869 38.5031 1.11774V3.2549C38.5031 4.20855 38.794 4.56518 39.6668 4.62838C40.7025 4.70625 41.1998 4.23977 41.1998 3.32637V1.12301C41.2009 1.07139 41.1989 1.01977 41.1938 0.968393C41.1616 0.391688 41.0377 0.248733 40.5857 0.197194C40.5594 0.197194 40.5339 0.190421 40.5084 0.190421V0.0941162H41.9371V0.190421C41.916 0.19569 41.8943 0.197971 41.8725 0.197194C41.4517 0.248733 41.3429 0.417643 41.3429 1.12301V3.37754C41.3429 4.33007 40.6702 4.95342 39.3706 4.8304C38.2392 4.73222 37.8957 4.33006 37.8957 3.405V0.94883C37.8638 0.391687 37.7542 0.241962 37.3533 0.196442C37.333 0.196442 37.3082 0.189669 37.2891 0.189669L37.2876 0.0941162Z" fill="#6A1A41"/>
<path d="M42.287 0.0941162H44.4582C44.6298 0.0956289 44.8009 0.112624 44.9695 0.1449C45.1604 0.166315 45.3426 0.236411 45.4987 0.34849C45.6549 0.46057 45.7797 0.610894 45.8614 0.785106C45.9431 0.959318 45.9788 1.1516 45.9652 1.34359C45.9516 1.53559 45.8891 1.72089 45.7837 1.88179C45.6053 2.13016 45.348 2.31043 45.054 2.39304C45.0284 2.40132 44.995 2.41336 44.9695 2.419C45.0177 2.43147 45.0651 2.44692 45.1114 2.46526C45.37 2.56834 45.5641 2.7824 45.8021 3.3403C45.861 3.49491 45.9128 3.62507 46.0299 4.00089C46.0483 4.06484 46.075 4.13707 46.0945 4.20178C46.1143 4.32251 46.1731 4.43343 46.2617 4.51754C46.3504 4.60165 46.4641 4.65432 46.5855 4.66751C46.6074 4.66614 46.6293 4.66843 46.6505 4.67428L46.6441 4.75893H45.584L45.3058 3.80565C45.2917 3.75294 45.2743 3.70116 45.2537 3.65065C44.9432 2.8155 44.7281 2.61386 44.147 2.55969C44.0981 2.55226 44.0487 2.54811 43.9991 2.54728H43.5592V3.73568C43.5579 3.78592 43.5601 3.83619 43.5656 3.88615C43.611 4.46925 43.7341 4.61146 44.2135 4.6566C44.2388 4.66236 44.2648 4.66464 44.2908 4.66337V4.76081H42.3174V4.66337C42.3395 4.66448 42.3617 4.6622 42.3831 4.6566C42.8358 4.61146 42.9511 4.44292 42.9589 3.73606V1.11962C42.9589 1.06695 42.9511 1.01655 42.9511 0.969145C42.9071 0.386044 42.7964 0.242713 42.3568 0.197946C42.3337 0.192346 42.31 0.190064 42.2863 0.191173L42.287 0.0941162ZM44.0449 2.41335C44.1091 2.41335 44.1733 2.40583 44.2386 2.40132C44.9823 2.30276 45.3186 1.92731 45.2871 1.23511C45.2593 0.574894 44.879 0.237072 44.1091 0.237072H43.5596V2.41485L44.0449 2.41335Z" fill="#6A1A41"/>
<path d="M46.5476 4.66149C46.5757 4.66243 46.6038 4.66016 46.6313 4.65472C46.6991 4.64863 46.7663 4.63769 46.8325 4.62199C47.1745 4.53847 47.2721 4.40266 47.3055 3.89706C47.3055 3.84514 47.3115 3.78609 47.3115 3.73417V1.11774C47.3115 0.418017 47.1884 0.248733 46.7109 0.197194C46.6873 0.191788 46.663 0.189509 46.6388 0.190421V0.0941162H50.214L50.3044 1.26031L50.2346 1.27988L50.2087 1.20464L50.1682 1.08765C49.9625 0.497399 49.5803 0.238197 48.8754 0.238197H47.911V2.25385H48.0934C48.1473 2.255 48.2012 2.25274 48.2549 2.24708C48.7992 2.18237 49.0056 2.00142 49.0698 1.59927L49.0893 1.46346L49.0953 1.40628H49.179V3.27145H49.0893C49.0893 3.23985 49.0829 3.20712 49.0829 3.17514C49.012 2.59768 48.8104 2.42276 48.2357 2.37197C48.1844 2.36572 48.1327 2.3632 48.0811 2.36444H47.9114V3.32186C47.9102 3.36737 47.9125 3.41291 47.9185 3.45804C47.956 4.44894 48.0289 4.58662 48.7331 4.65584C48.9039 4.67589 49.0769 4.667 49.2447 4.62952C49.5494 4.58221 49.8311 4.43853 50.0485 4.21945C50.266 4.00038 50.4079 3.71739 50.4535 3.41178L50.5285 3.42381L50.4193 4.76005H46.5476V4.66149Z" fill="#6A1A41"/>
<path d="M50.8802 3.2285L50.964 3.21609C50.9778 3.3644 51.0103 3.51038 51.0604 3.6506C51.1352 3.90629 51.2775 4.13701 51.4723 4.31837C51.6671 4.49974 51.9071 4.62502 52.1671 4.681C52.9178 4.83599 53.4858 4.40863 53.5184 3.83832C53.5427 3.67522 53.5218 3.50858 53.458 3.35659C53.3942 3.2046 53.2899 3.0731 53.1566 2.97646C52.9118 2.82147 52.9434 2.84027 51.9794 2.52954C51.8202 2.47167 51.6666 2.39965 51.5203 2.31436C51.3656 2.22586 51.2335 2.10256 51.1344 1.95418C51.0354 1.80579 50.9721 1.63638 50.9495 1.4593C50.927 1.28221 50.9457 1.1023 51.0044 0.93373C51.0631 0.765164 51.16 0.612555 51.2875 0.487936C51.4328 0.333854 51.6093 0.212758 51.8052 0.132808C51.8853 0.0941521 51.9697 0.065353 52.0567 0.0470373C52.3543 -0.025335 52.666 -0.0140133 52.9576 0.0797625C53.0154 0.100453 53.0875 0.117382 53.3127 0.210302C53.3315 0.216672 53.3511 0.220468 53.3709 0.221587C53.6055 0.275007 53.7204 0.235508 53.7786 0.118888C53.7917 0.0969225 53.8002 0.0724533 53.8034 0.0470373H53.9017V1.416L53.8244 1.42841C53.818 1.39569 53.8034 1.35694 53.7973 1.32534C53.7651 1.11863 53.6905 0.920854 53.5783 0.744479C53.466 0.568105 53.3184 0.416963 53.1449 0.300591C52.9065 0.149713 52.6235 0.0856865 52.3435 0.119267C52.2169 0.130865 52.0941 0.168566 51.9827 0.230003C51.8713 0.291439 51.7738 0.37528 51.6963 0.476271C51.1224 1.24032 51.5161 1.77189 53.2812 2.27637C53.449 2.34219 53.6043 2.43634 53.7403 2.55475C53.8916 2.68217 54.0053 2.84855 54.0692 3.03595C54.1331 3.22336 54.1447 3.42469 54.1029 3.61825C53.9468 4.59146 52.7958 5.14221 51.4377 4.5655C51.4082 4.54819 51.3747 4.53897 51.3405 4.53879C51.2856 4.53282 51.2301 4.54099 51.1793 4.56252C51.1284 4.58405 51.0839 4.61822 51.0499 4.6618C51.0197 4.69746 50.9977 4.73933 50.9854 4.78445H50.8821L50.8802 3.2285Z" fill="#6A1A41"/>
</svg>
