<svg width="175" height="66" viewBox="0 0 175 66" fill="none" xmlns="http://www.w3.org/2000/svg">
<path d="M108.112 22.2433L99.0987 0H89.6431L103.606 35.508L108.112 22.2433Z" fill="white"/>
<path d="M107.444 23.0932L107.799 23.2331L116.86 0.00219727H116.448L107.444 23.0932Z" fill="white"/>
<path d="M116.66 0H109.035V0.38556H116.66V0Z" fill="white"/>
<path d="M76.584 22.2433L67.5702 0H58.1122L72.0753 35.508L76.584 22.2433Z" fill="white"/>
<path d="M92.5534 22.2433L83.5444 0H74.0779L88.0458 35.508L92.5534 22.2433Z" fill="white"/>
<path d="M0 50.4658H5.81098V50.8417C5.72682 50.8385 5.64257 50.8446 5.55975 50.8599C5.35453 50.8754 5.1513 50.9108 4.95292 50.9657C3.99171 51.26 3.84364 51.6614 4.32182 53.2925C4.38833 53.4775 4.44385 53.6664 4.48809 53.858L7.41665 62.659L10.3634 54.1718L10.3889 54.0502L10.5321 53.5856L10.5903 53.2949C10.6155 52.9425 10.5307 52.591 10.3476 52.289C10.2447 52.05 10.1121 51.8248 9.95318 51.6188C9.79925 51.3885 9.59452 51.1968 9.35482 51.0584C9.11512 50.9201 8.84687 50.8388 8.57083 50.821V50.4683H14.3187V50.8015C14.2556 50.8198 14.1973 50.8198 14.1318 50.8441C12.69 51.1773 12.2919 51.8901 12.7737 53.4591L13.0444 54.1122L15.9705 62.7478L19.0447 53.8434C19.1078 53.6743 19.1503 53.5041 19.2122 53.3399C19.7352 51.4534 19.5253 51.0363 17.8929 50.883C17.8178 50.8679 17.7413 50.8618 17.6647 50.8648V50.4707H22.1176V50.8648C22.0536 50.8621 21.9895 50.8682 21.9271 50.883C20.8858 51.0131 20.4015 51.4911 19.7134 53.3156C19.6539 53.4822 19.592 53.6719 19.5265 53.8592L15.5214 65.4625L15.4122 65.7374C15.389 65.7743 15.3569 65.8048 15.3188 65.8259C15.2807 65.847 15.2379 65.858 15.1944 65.858C15.1508 65.858 15.108 65.847 15.0699 65.8259C15.0318 65.8048 14.9997 65.7743 14.9765 65.7374L14.9134 65.4844L10.912 53.9687L6.93846 65.3835L6.83409 65.6997C6.83409 65.7216 6.79525 65.7605 6.70544 65.8043C6.65046 65.8168 6.59327 65.8159 6.53875 65.8015C6.48422 65.7871 6.43398 65.7597 6.39232 65.7216L6.33406 65.4893L2.44187 53.9067C2.40078 53.7402 2.34598 53.5775 2.27803 53.4202C1.56683 51.5337 1.15054 51.0715 0.165054 50.866C0.125004 50.8477 0.0606827 50.8477 0 50.8234V50.4658Z" fill="white"/>
<path d="M21.9102 65.2326C21.9805 65.2363 22.0509 65.2289 22.1189 65.2107C23.5195 65.0648 23.9394 64.5625 24.0608 62.6967C24.0773 62.5294 24.0838 62.3613 24.0802 62.1932V52.6867C24.0608 52.5347 24.0608 52.4131 24.0401 52.2854C23.8484 51.2795 23.4527 50.9012 22.324 50.7991C22.235 50.7808 22.1441 50.7735 22.0534 50.7772V50.4658H28.175V50.8186C28.0949 50.8186 28.01 50.8417 27.9457 50.8417C26.5233 50.9888 26.1252 51.4705 26.0427 53.2925V62.7429C26.147 64.3958 26.4395 64.8349 27.4274 65.1049C27.5294 65.1268 27.6544 65.1475 27.7563 65.1658L27.9918 65.2107L28.1532 65.2326V65.5477H21.9102V65.2326Z" fill="white"/>
<path d="M28.9348 65.2324C29.0163 65.2356 29.0979 65.2283 29.1775 65.2105C29.3974 65.1909 29.6156 65.1555 29.8305 65.1047C30.975 64.814 31.3124 64.2922 31.3124 62.2355V53.8189C31.3159 53.6435 31.309 53.468 31.2917 53.2934C31.2068 51.469 30.7905 50.9667 29.3499 50.8195C29.2746 50.8033 29.1974 50.7972 29.1205 50.8013V50.468H33.0042L42.387 61.7794V53.7957C42.4125 51.7281 42.0775 51.2221 40.8832 50.9047C40.663 50.8529 40.439 50.8187 40.2133 50.8025H39.9706V50.4692H45.0072V50.8025C44.9303 50.7984 44.8532 50.8046 44.7779 50.8207C43.5642 50.9424 43.1467 51.3073 42.938 52.2888C42.871 52.7882 42.8434 53.292 42.8554 53.7957V64.8177L42.8749 65.4027C42.8749 65.4258 42.8749 65.4659 42.7911 65.5705L42.7074 65.4258L42.6224 65.3042L42.3299 64.8018L31.7954 52.1258V62.2392C31.7917 62.415 31.7994 62.5909 31.8185 62.7658C31.9228 64.4005 32.2748 64.8335 33.469 65.1095C33.6949 65.1691 33.9263 65.2046 34.1596 65.2154C34.2556 65.2335 34.3533 65.2409 34.4509 65.2373V65.5523H28.9348V65.2324Z" fill="white"/>
<path d="M45.8313 65.2326C45.9216 65.2356 46.012 65.2282 46.1007 65.2107C46.3194 65.1909 46.5364 65.1556 46.75 65.1049C47.8545 64.8349 48.1688 64.3958 48.2744 62.7612C48.2744 62.5933 48.2974 62.4024 48.2974 62.2345V53.7753C48.2974 51.513 47.8957 50.9657 46.3556 50.7991C46.2804 50.7819 46.2033 50.7746 46.1262 50.7772V50.4658H57.6851L57.9751 54.2363L57.7482 54.2995L57.6632 54.0563L57.5346 53.678C56.8695 51.7697 55.634 50.9316 53.3572 50.9316H50.2429V57.4485H50.8267C51.0022 57.4522 51.1777 57.4449 51.3522 57.4266C53.1084 57.2174 53.7795 56.6323 53.9846 55.3321L54.0453 54.8931L54.0672 54.7082H54.3378V60.7385H54.0453C54.0453 60.6363 54.0235 60.5305 54.0235 60.4271C53.7953 58.5601 53.1448 57.9946 51.2855 57.8304C51.1196 57.8102 50.9525 57.8021 50.7854 57.806H50.2405V60.9015C50.2366 61.0486 50.2443 61.1958 50.2636 61.3418C50.3849 64.5454 50.6167 64.9906 52.8948 65.2144C53.4462 65.2793 54.0047 65.2506 54.5466 65.1293C55.5328 64.9786 56.4447 64.5148 57.1484 63.8061C57.852 63.0975 58.3103 62.1812 58.4557 61.1922L58.7058 61.2311L58.3502 65.5513H45.8313V65.2326Z" fill="white"/>
<path d="M63.7071 50.4658H69.495V50.8186C69.411 50.8147 69.3269 50.8224 69.245 50.8417C67.8226 50.9888 67.5932 51.513 68.1976 53.3143C68.2581 53.4933 68.3286 53.6688 68.4088 53.8398L71.9624 62.8025L75.391 53.8398C75.4585 53.6686 75.5144 53.493 75.5585 53.3143C76.084 51.6614 75.9165 51.2369 74.8655 50.9657C74.7588 50.9251 74.6481 50.8958 74.5353 50.8781L74.1797 50.8186L73.971 50.8003V50.467H78.4615V50.8003C78.396 50.8186 78.3402 50.8185 78.2686 50.8429C77.2891 51.0521 76.8061 51.5143 76.0524 53.3545C75.9942 53.5248 75.9116 53.6914 75.8449 53.8836L71.4964 65.2545C71.4734 65.3427 71.4396 65.4277 71.3956 65.5075C71.2743 65.7568 71.0995 65.7812 70.9563 65.6133L70.8276 65.2545L66.2922 53.8836C66.1024 53.3656 65.8791 52.8605 65.6235 52.3717C65.1453 51.4924 64.8953 51.2211 64.3054 50.9913C64.1667 50.9263 64.019 50.8829 63.8673 50.8623C63.8297 50.8441 63.7654 50.8441 63.7035 50.8198L63.7071 50.4658Z" fill="white"/>
<path d="M77.3754 65.2326C77.4669 65.2356 77.5585 65.2282 77.6484 65.2107C77.8675 65.1908 78.0849 65.1555 78.299 65.1049C79.4058 64.8349 79.7202 64.3958 79.827 62.7612C79.827 62.5933 79.844 62.4024 79.844 62.2345V53.7753C79.844 51.513 79.4483 50.9657 77.9021 50.7991C77.8265 50.7818 77.749 50.7744 77.6715 50.7772V50.4658H89.2352L89.5253 54.2363L89.2922 54.2995L89.2085 54.0563L89.0871 53.678C88.4184 51.7697 87.1878 50.9316 84.9061 50.9316H81.7919V57.4485H82.3768C82.5515 57.4522 82.7262 57.4449 82.8999 57.4266C84.6561 57.2174 85.3272 56.6323 85.5324 55.3321L85.5967 54.8931L85.6197 54.7082H85.8928V60.7385H85.5967C85.5967 60.6363 85.5773 60.5305 85.5773 60.4271C85.3491 58.5601 84.6974 57.9946 82.8405 57.8304C82.6734 57.8102 82.5051 57.802 82.3368 57.806H81.7919V60.9015C81.7885 61.0485 81.795 61.1956 81.8113 61.3418C81.9327 64.5454 82.1693 64.9906 84.4486 65.2144C85.0008 65.2792 85.56 65.2505 86.1028 65.1293C86.8878 65.0253 87.6314 64.7152 88.2583 64.2303C88.8851 63.7454 89.3729 63.103 89.6721 62.3683C89.8415 61.995 89.9548 61.5987 90.0083 61.1922L90.2583 61.2311L89.9003 65.5489H77.3754V65.2326Z" fill="white"/>
<path d="M90.8469 65.2324C90.9284 65.2356 91.01 65.2283 91.0897 65.2105C91.3079 65.1908 91.5245 65.1555 91.7377 65.1047C92.8846 64.814 93.222 64.2922 93.222 62.2355V53.8189C93.2259 53.6434 93.2186 53.4679 93.2002 53.2934C93.1201 51.469 92.6965 50.9667 91.2584 50.8195C91.1826 50.8035 91.1051 50.7974 91.0278 50.8013V50.468H94.9115L104.298 61.7794V53.7957C104.317 51.7281 103.984 51.2221 102.793 50.9047C102.573 50.8532 102.349 50.819 102.124 50.8025H101.884V50.4692H106.919V50.8025C106.842 50.7986 106.765 50.8047 106.69 50.8207C105.476 50.9424 105.061 51.3073 104.854 52.2888C104.781 52.7876 104.751 53.2918 104.764 53.7957V64.8177L104.792 65.4027C104.792 65.4258 104.792 65.4659 104.707 65.5705L104.627 65.4258L104.538 65.3042L104.248 64.8018L93.7124 52.1258V62.2392C93.7089 62.4149 93.7154 62.5907 93.7318 62.7658C93.8362 64.4005 94.193 64.8335 95.386 65.1095C95.6109 65.1697 95.8416 65.2052 96.0741 65.2154C96.1705 65.2337 96.2686 65.241 96.3666 65.2373V65.5523H90.8493L90.8469 65.2324Z" fill="white"/>
<path d="M107.527 50.4658H119.863L120.238 54.8225H119.927C119.903 54.7179 119.885 54.5902 119.863 54.4856C119.32 52.1187 118.249 51.1761 116.184 50.945C116.011 50.9267 115.837 50.9194 115.663 50.9231H114.743V62.7612C114.847 64.5625 115.264 65.0648 116.874 65.2107C116.956 65.2107 117.045 65.2326 117.127 65.2326V65.5477H110.396V65.2326C110.48 65.2363 110.564 65.229 110.646 65.2107C112.233 65.0648 112.653 64.5832 112.756 62.7429C112.772 62.574 112.778 62.4042 112.775 62.2345V50.9231H111.65C110.853 50.8249 110.045 51.0018 109.362 51.4247C108.678 51.8477 108.158 52.4914 107.888 53.2499C107.684 53.6445 107.543 54.0683 107.469 54.5063L107.177 54.4856L107.527 50.4658Z" fill="white"/>
<path d="M120.555 50.4658H126.679V50.7772C126.594 50.7772 126.509 50.7991 126.426 50.7991C124.857 50.9657 124.485 51.4899 124.485 53.7753V60.685C124.485 63.7682 125.425 64.9213 128.247 65.1256C131.595 65.3774 133.203 63.8692 133.203 60.9161V53.7923C133.207 53.6255 133.2 53.4585 133.184 53.2925C133.08 51.4279 132.679 50.9657 131.218 50.7991C131.133 50.7991 131.05 50.7772 130.968 50.7772V50.4658H135.587V50.7772C135.519 50.7942 135.449 50.8016 135.378 50.7991C134.018 50.9657 133.666 51.5118 133.666 53.7923V61.0815C133.666 64.1611 131.491 66.1765 127.289 65.7788C123.631 65.4613 122.521 64.1611 122.521 61.1703V53.2292C122.418 51.4279 122.063 50.9438 120.767 50.7967C120.702 50.7967 120.621 50.7748 120.56 50.7748L120.555 50.4658Z" fill="white"/>
<path d="M136.718 50.4658H143.738C144.293 50.4707 144.846 50.5257 145.391 50.63C146.008 50.6992 146.597 50.9259 147.102 51.2882C147.607 51.6506 148.011 52.1366 148.275 52.6999C148.539 53.2631 148.654 53.8848 148.61 54.5055C148.566 55.1263 148.364 55.7254 148.023 56.2456C147.447 57.0486 146.615 57.6314 145.664 57.8985C145.582 57.9253 145.474 57.9642 145.391 57.9824C145.547 58.0227 145.7 58.0727 145.85 58.132C146.686 58.4653 147.313 59.1573 148.083 60.9611C148.273 61.461 148.441 61.8818 148.82 63.0968C148.879 63.3036 148.965 63.5371 149.028 63.7463C149.092 64.1367 149.282 64.4953 149.569 64.7672C149.856 65.0392 150.223 65.2095 150.616 65.2521C150.687 65.2477 150.757 65.2551 150.826 65.274L150.805 65.5477H147.378L146.478 62.4656C146.433 62.2952 146.376 62.1278 146.31 61.9645C145.306 59.2644 144.611 58.6124 142.732 58.4373C142.574 58.4133 142.414 58.3999 142.254 58.3972H140.831V62.2394C140.827 62.4018 140.834 62.5644 140.852 62.7259C140.999 64.6111 141.397 65.0709 142.947 65.2168C143.029 65.2354 143.113 65.2428 143.197 65.2387V65.5537H136.817V65.2387C136.888 65.2423 136.96 65.2349 137.029 65.2168C138.493 65.0709 138.865 64.526 138.891 62.2406V53.7814C138.891 53.6111 138.865 53.4481 138.865 53.2949C138.723 51.4097 138.365 50.9463 136.944 50.8015C136.869 50.7834 136.793 50.776 136.716 50.7796L136.718 50.4658ZM142.402 57.9642C142.609 57.9642 142.817 57.9399 143.028 57.9253C145.432 57.6066 146.52 56.3927 146.418 54.1548C146.328 52.0202 145.099 50.928 142.609 50.928H140.833V57.969L142.402 57.9642Z" fill="white"/>
<path d="M150.493 65.2326C150.584 65.2357 150.675 65.2283 150.764 65.2107C150.983 65.1911 151.2 65.1557 151.414 65.1049C152.52 64.8349 152.836 64.3958 152.944 62.7612C152.944 62.5933 152.963 62.4024 152.963 62.2345V53.7753C152.963 51.513 152.565 50.9657 151.021 50.7991C150.945 50.7816 150.866 50.7742 150.788 50.7772V50.4658H162.347L162.639 54.2363L162.414 54.2995L162.33 54.0563L162.199 53.678C161.534 51.7697 160.298 50.9316 158.019 50.9316H154.901V57.4485H155.491C155.665 57.4522 155.84 57.4449 156.013 57.4266C157.773 57.2174 158.44 56.6323 158.648 55.3321L158.711 54.8931L158.73 54.7082H159.001V60.7385H158.711C158.711 60.6363 158.69 60.5305 158.69 60.4271C158.461 58.5601 157.809 57.9946 155.951 57.8304C155.785 57.8102 155.618 57.802 155.451 57.806H154.902V60.9015C154.898 61.0486 154.906 61.1958 154.925 61.3418C155.047 64.5454 155.282 64.9906 157.559 65.2144C158.111 65.2792 158.671 65.2505 159.213 65.1293C160.198 64.9763 161.109 64.5118 161.812 63.8035C162.515 63.0952 162.974 62.1803 163.121 61.1922L163.364 61.2311L163.011 65.5513H150.493V65.2326Z" fill="white"/>
<path d="M164.501 60.5997L164.772 60.5596C164.817 61.0391 164.921 61.5111 165.084 61.9644C165.325 62.7911 165.785 63.537 166.415 64.1234C167.045 64.7098 167.821 65.1148 168.662 65.2958C171.089 65.7969 172.925 64.4152 173.031 62.5713C173.109 62.044 173.042 61.5053 172.835 61.0139C172.629 60.5224 172.292 60.0973 171.861 59.7848C171.069 59.2837 171.171 59.3445 168.055 58.3399C167.54 58.1528 167.043 57.92 166.57 57.6442C166.07 57.3581 165.643 56.9594 165.323 56.4797C165.003 56 164.798 55.4522 164.725 54.8797C164.652 54.3072 164.713 53.7255 164.903 53.1805C165.092 52.6355 165.406 52.1421 165.818 51.7392C166.288 51.241 166.858 50.8495 167.492 50.591C167.75 50.466 168.023 50.3729 168.305 50.3137C169.267 50.0797 170.275 50.1163 171.217 50.4195C171.404 50.4864 171.637 50.5411 172.366 50.8416C172.426 50.8621 172.49 50.8744 172.554 50.878C173.312 51.0507 173.684 50.923 173.872 50.546C173.914 50.475 173.942 50.3959 173.952 50.3137H174.27V54.7397L174.02 54.7798C173.999 54.674 173.952 54.5488 173.932 54.4466C173.828 53.7783 173.587 53.1388 173.224 52.5686C172.861 51.9984 172.384 51.5097 171.823 51.1335C171.052 50.6457 170.137 50.4387 169.232 50.5472C168.823 50.5847 168.425 50.7066 168.065 50.9052C167.705 51.1039 167.39 51.3749 167.14 51.7015C165.284 54.1717 166.557 55.8903 172.264 57.5214C172.806 57.7342 173.308 58.0386 173.748 58.4214C174.237 58.8334 174.605 59.3713 174.811 59.9772C175.018 60.5831 175.056 61.234 174.92 61.8598C174.415 65.0063 170.694 66.787 166.303 64.9224C166.208 64.8664 166.1 64.8366 165.989 64.836C165.812 64.8167 165.632 64.8431 165.468 64.9127C165.303 64.9823 165.16 65.0928 165.05 65.2337C164.952 65.349 164.881 65.4844 164.841 65.6303H164.507L164.501 60.5997Z" fill="white"/>
</svg>
