<svg width="315" height="140" viewBox="0 0 315 140" fill="none" xmlns="http://www.w3.org/2000/svg">
<path d="M194.587 40.0347L178.363 0H161.344L186.476 63.9092L194.587 40.0347Z" fill="white"/>
<path d="M193.383 41.5646L194.023 41.8164L210.332 0.00415039H209.589L193.383 41.5646Z" fill="white"/>
<path d="M209.971 0H196.247V0.693952H209.971V0Z" fill="white"/>
<path d="M137.84 40.0347L121.617 0H104.594L129.725 63.9092L137.84 40.0347Z" fill="white"/>
<path d="M166.583 40.0347L150.368 0H133.33L158.47 63.9092L166.583 40.0347Z" fill="white"/>
<path d="M0 90.8311H10.4589V91.5075C10.3075 91.5018 10.1558 91.5128 10.0067 91.5403C9.63738 91.5682 9.27159 91.632 8.91455 91.7308C7.1845 92.2605 6.918 92.983 7.77866 95.9186C7.89836 96.2517 7.99829 96.5916 8.07792 96.9366L13.3489 112.777L18.6526 97.5013L18.6985 97.2824L18.9563 96.4462L19.0611 95.923C19.1064 95.2887 18.9537 94.656 18.6242 94.1126C18.4389 93.6823 18.2004 93.277 17.9143 92.9063C17.6372 92.4918 17.2688 92.1467 16.8373 91.8977C16.4059 91.6486 15.9231 91.5024 15.4263 91.4703V90.8354H25.7716V91.4353C25.658 91.4681 25.5532 91.4681 25.4352 91.5119C22.8401 92.1117 22.1236 93.3945 22.9908 96.2185L23.478 97.394L28.7446 112.937L34.2777 96.9102C34.3913 96.6059 34.4677 96.2995 34.5791 96.004C35.5206 92.6086 35.1427 91.8578 32.2047 91.5819C32.0695 91.5548 31.9317 91.5438 31.794 91.5491V90.8398H39.8086V91.5491C39.6933 91.5443 39.5779 91.5553 39.4656 91.5819C37.5914 91.8162 36.7198 92.6765 35.4813 95.9602C35.3742 96.2601 35.2628 96.6016 35.1449 96.9387L27.9363 117.823L27.7397 118.318C27.6981 118.384 27.6402 118.439 27.5716 118.477C27.5031 118.515 27.426 118.535 27.3476 118.535C27.2693 118.535 27.1922 118.515 27.1236 118.477C27.0551 118.439 26.9972 118.384 26.9555 118.318L26.842 117.862L19.64 97.1357L12.4882 117.681L12.3004 118.25C12.3004 118.289 12.2305 118.359 12.0688 118.438C11.9699 118.461 11.8669 118.459 11.7688 118.433C11.6707 118.407 11.5802 118.358 11.5053 118.289L11.4004 117.871L4.39501 97.0241C4.32106 96.7245 4.22243 96.4316 4.10012 96.1484C2.82006 92.7531 2.07081 91.9212 0.297074 91.5513C0.224989 91.5184 0.10922 91.5185 0 91.4747V90.8311Z" fill="white"/>
<path d="M39.4351 117.409C39.5616 117.416 39.6884 117.402 39.8108 117.37C42.3316 117.107 43.0874 116.203 43.3058 112.845C43.3356 112.544 43.3472 112.241 43.3408 111.939V94.8284C43.3058 94.5548 43.3058 94.3358 43.2687 94.106C42.9236 92.2956 42.2114 91.6148 40.1799 91.4309C40.0198 91.3981 39.8562 91.3848 39.6928 91.3915V90.8311H50.711V91.4659C50.5668 91.4659 50.4139 91.5075 50.2981 91.5075C47.738 91.7724 47.0215 92.6393 46.873 95.9186V112.928C47.0608 115.903 47.5873 116.693 49.3654 117.179C49.5489 117.219 49.7738 117.256 49.9573 117.289L50.3811 117.37L50.6716 117.409V117.976H39.4351V117.409Z" fill="white"/>
<path d="M52.0784 117.409C52.2251 117.415 52.3719 117.402 52.5152 117.37C52.911 117.334 53.3037 117.271 53.6905 117.179C55.7503 116.656 56.3576 115.717 56.3576 112.015V96.8662C56.364 96.5506 56.3516 96.2348 56.3205 95.9205C56.1676 92.6368 55.4183 91.7327 52.8254 91.4679C52.6899 91.4387 52.551 91.4277 52.4126 91.435V90.8352H59.4027L76.2903 111.194V96.8246C76.3362 93.1031 75.7333 92.1925 73.5838 91.6211C73.1874 91.5279 72.7842 91.4664 72.378 91.4372H71.9411V90.8374H81.0064V91.4372C80.868 91.4299 80.7292 91.4409 80.5936 91.4701C78.4092 91.689 77.6577 92.3457 77.282 94.1123C77.1616 95.0111 77.1119 95.918 77.1335 96.8246V116.662L77.1684 117.715C77.1684 117.757 77.1684 117.829 77.0177 118.018L76.867 117.757L76.7141 117.538L76.1876 116.634L57.227 93.819V112.022C57.2204 112.338 57.2342 112.655 57.2685 112.969C57.4564 115.912 58.0898 116.691 60.2393 117.188C60.6458 117.295 61.0624 117.359 61.4822 117.378C61.655 117.411 61.8308 117.424 62.0065 117.418V117.985H52.0784V117.409Z" fill="white"/>
<path d="M82.4897 117.409C82.6524 117.414 82.815 117.401 82.9747 117.37C83.3682 117.334 83.7588 117.27 84.1433 117.179C86.1311 116.693 86.6969 115.903 86.887 112.961C86.887 112.659 86.9285 112.315 86.9285 112.013V96.7876C86.9285 92.7159 86.2054 91.7308 83.4334 91.4309C83.2981 91.4 83.1593 91.3868 83.0205 91.3915V90.8311H103.825L104.347 97.6173L103.938 97.7312L103.786 97.2934L103.554 96.6125C102.357 93.1778 100.133 91.6695 96.0352 91.6695H90.4301V103.399H91.4807C91.7965 103.405 92.1125 103.392 92.4266 103.359C95.5874 102.983 96.7954 101.93 97.1646 99.5897L97.2738 98.7995L97.3131 98.4667H97.8002V109.32H97.2738C97.2738 109.136 97.2345 108.946 97.2345 108.76C96.8238 105.4 95.653 104.382 92.3065 104.086C92.0079 104.05 91.7071 104.035 91.4065 104.042H90.4257V109.614C90.4186 109.879 90.4325 110.144 90.4672 110.406C90.6856 116.172 91.1029 116.974 95.203 117.376C96.1955 117.493 97.2006 117.441 98.176 117.223C99.951 116.952 101.592 116.117 102.859 114.842C104.125 113.566 104.95 111.917 105.212 110.137L105.662 110.207L105.022 117.983H82.4897V117.409Z" fill="white"/>
<path d="M114.664 90.8311H125.081V91.4659C124.93 91.4589 124.779 91.4729 124.631 91.5075C122.071 91.7724 121.658 92.7159 122.746 95.958C122.855 96.2801 122.982 96.5959 123.126 96.9037L129.522 113.035L135.693 96.9037C135.815 96.5956 135.915 96.2796 135.994 95.958C136.94 92.983 136.639 92.2189 134.747 91.7308C134.555 91.6577 134.356 91.6049 134.153 91.5732L133.513 91.4659L133.137 91.4331V90.8333H141.22V91.4331C141.102 91.4659 141.001 91.4659 140.872 91.5097C139.109 91.8862 138.24 92.7181 136.884 96.0302C136.779 96.3367 136.63 96.6366 136.51 96.9825L128.683 117.449C128.642 117.607 128.581 117.76 128.502 117.904C128.284 118.353 127.969 118.396 127.711 118.094L127.48 117.449L119.317 96.9825C118.975 96.0502 118.573 95.1412 118.113 94.2614C117.252 92.6787 116.802 92.1905 115.741 91.7768C115.491 91.6599 115.225 91.5817 114.952 91.5447C114.884 91.5119 114.769 91.5119 114.657 91.4681L114.664 90.8311Z" fill="white"/>
<path d="M139.264 117.409C139.429 117.414 139.594 117.401 139.756 117.37C140.15 117.334 140.541 117.27 140.927 117.179C142.919 116.693 143.485 115.903 143.677 112.961C143.677 112.659 143.708 112.315 143.708 112.013V96.7876C143.708 92.7159 142.995 91.7308 140.212 91.4309C140.076 91.3997 139.937 91.3865 139.797 91.3915V90.8311H160.61L161.132 97.6173L160.713 97.7312L160.562 97.2934L160.344 96.6125C159.14 93.1778 156.925 91.6695 152.819 91.6695H147.213V103.399H148.266C148.581 103.406 148.895 103.392 149.208 103.359C152.369 102.983 153.577 101.93 153.946 99.5897L154.062 98.7995L154.103 98.4667H154.595V109.32H154.062C154.062 109.136 154.027 108.946 154.027 108.76C153.616 105.4 152.443 104.382 149.101 104.086C148.8 104.05 148.497 104.035 148.194 104.042H147.213V109.614C147.207 109.878 147.219 110.143 147.248 110.406C147.467 116.172 147.893 116.974 151.995 117.376C152.989 117.493 153.996 117.441 154.972 117.223C156.385 117.036 157.724 116.478 158.852 115.605C159.98 114.732 160.858 113.576 161.397 112.254C161.702 111.582 161.906 110.869 162.002 110.137L162.452 110.207L161.807 117.978H139.264V117.409Z" fill="white"/>
<path d="M163.511 117.409C163.658 117.415 163.805 117.402 163.948 117.37C164.341 117.334 164.731 117.27 165.115 117.179C167.179 116.656 167.786 115.717 167.786 112.015V96.8662C167.793 96.5505 167.78 96.2346 167.747 95.9205C167.603 92.6368 166.841 91.7327 164.252 91.4679C164.116 91.439 163.976 91.428 163.837 91.435V90.8352H170.827L187.721 111.194V96.8246C187.756 93.1031 187.155 92.1925 185.013 91.6211C184.617 91.5285 184.214 91.467 183.809 91.4372H183.376V90.8374H192.44V91.4372C192.301 91.4302 192.162 91.4413 192.027 91.4701C189.842 91.689 189.095 92.3457 188.722 94.1123C188.591 95.0102 188.537 95.9176 188.56 96.8246V116.662L188.61 117.715C188.61 117.757 188.61 117.829 188.457 118.018L188.313 117.757L188.154 117.538L187.632 116.634L168.669 93.819V112.022C168.663 112.338 168.674 112.654 168.704 112.969C168.892 115.912 169.534 116.691 171.681 117.188C172.086 117.296 172.501 117.36 172.92 117.378C173.093 117.411 173.27 117.424 173.446 117.418V117.985H163.516L163.511 117.409Z" fill="white"/>
<path d="M193.534 90.8311H215.736L216.411 98.6725H215.852C215.808 98.4843 215.775 98.2544 215.736 98.0661C214.76 93.8061 212.831 92.1095 209.115 91.6936C208.803 91.6606 208.49 91.6474 208.176 91.6542H206.52V112.961C206.708 116.203 207.459 117.107 210.356 117.37C210.505 117.37 210.664 117.409 210.813 117.409V117.976H198.698V117.409C198.849 117.416 199 117.403 199.148 117.37C202.003 117.107 202.759 116.24 202.944 112.928C202.973 112.624 202.985 112.318 202.979 112.013V91.6542H200.954C199.519 91.4774 198.066 91.7958 196.835 92.557C195.604 93.3182 194.669 94.4768 194.183 95.842C193.816 96.5522 193.562 97.3151 193.429 98.1033L192.903 98.0661L193.534 90.8311Z" fill="white"/>
<path d="M216.981 90.8311H228.004V91.3915C227.851 91.3915 227.698 91.4309 227.549 91.4309C224.725 91.7308 224.054 92.6743 224.054 96.7876V109.224C224.054 114.773 225.747 116.849 230.826 117.217C236.853 117.67 239.747 114.955 239.747 109.64V96.8183C239.753 96.518 239.742 96.2175 239.712 95.9186C239.524 92.5627 238.803 91.7308 236.173 91.4309C236.02 91.4309 235.872 91.3915 235.723 91.3915V90.8311H244.037V91.3915C243.914 91.4221 243.788 91.4354 243.662 91.4309C241.213 91.7308 240.579 92.7137 240.579 96.8183V109.938C240.579 115.481 236.665 119.108 229.102 118.392C222.519 117.821 220.52 115.481 220.52 110.098V95.8047C220.334 92.5627 219.696 91.6914 217.363 91.4265C217.246 91.4265 217.101 91.3871 216.99 91.3871L216.981 90.8311Z" fill="white"/>
<path d="M246.073 90.8311H258.708C259.706 90.8399 260.702 90.9388 261.683 91.1266C262.794 91.2512 263.854 91.6591 264.763 92.3113C265.671 92.9635 266.398 93.8383 266.873 94.852C267.348 95.8658 267.556 96.9847 267.477 98.1019C267.398 99.2192 267.034 100.297 266.421 101.234C265.383 102.679 263.885 103.728 262.174 104.209C262.026 104.257 261.831 104.327 261.683 104.36C261.963 104.432 262.239 104.522 262.509 104.629C264.014 105.229 265.143 106.475 266.528 109.721C266.871 110.621 267.172 111.378 267.854 113.565C267.961 113.937 268.116 114.358 268.23 114.734C268.345 115.437 268.687 116.082 269.203 116.572C269.719 117.061 270.38 117.368 271.087 117.444C271.214 117.436 271.342 117.45 271.465 117.484L271.428 117.976H265.259L263.64 112.429C263.558 112.122 263.457 111.821 263.337 111.527C261.53 106.667 260.278 105.494 256.897 105.179C256.612 105.135 256.324 105.111 256.036 105.106H253.476V112.022C253.469 112.314 253.481 112.607 253.513 112.897C253.778 116.291 254.494 117.118 257.284 117.381C257.431 117.414 257.582 117.428 257.734 117.42V117.987H246.25V117.42C246.379 117.427 246.508 117.413 246.632 117.381C249.267 117.118 249.937 116.137 249.983 112.024V96.7986C249.983 96.4921 249.937 96.1988 249.937 95.923C249.682 92.5298 249.037 91.6958 246.48 91.4353C246.345 91.4027 246.207 91.3894 246.069 91.3958L246.073 90.8311ZM256.303 104.327C256.676 104.327 257.05 104.283 257.43 104.257C261.757 103.683 263.714 101.499 263.531 97.4707C263.369 93.6288 261.157 91.6629 256.676 91.6629H253.478V104.336L256.303 104.327Z" fill="white"/>
<path d="M270.866 117.409C271.03 117.415 271.193 117.401 271.353 117.37C271.748 117.334 272.139 117.271 272.524 117.179C274.514 116.693 275.082 115.903 275.277 112.961C275.277 112.659 275.311 112.315 275.311 112.013V96.7876C275.311 92.7159 274.595 91.7308 271.816 91.4309C271.679 91.3994 271.538 91.3862 271.397 91.3915V90.8311H292.201L292.728 97.6173L292.321 97.7312L292.171 97.2934L291.935 96.6125C290.738 93.1778 288.514 91.6695 284.412 91.6695H278.8V103.399H279.862C280.175 103.406 280.489 103.392 280.801 103.359C283.968 102.983 285.17 101.93 285.543 99.5897L285.657 98.7995L285.692 98.4667H286.179V109.32H285.657C285.657 109.136 285.62 108.946 285.62 108.76C285.207 105.4 284.034 104.382 280.689 104.086C280.391 104.05 280.09 104.035 279.79 104.042H278.802V109.614C278.795 109.879 278.809 110.144 278.844 110.406C279.062 116.172 279.486 116.974 283.584 117.376C284.578 117.493 285.584 117.441 286.561 117.223C288.334 116.948 289.973 116.112 291.239 114.837C292.504 113.562 293.33 111.915 293.595 110.137L294.032 110.207L293.396 117.983H270.866V117.409Z" fill="white"/>
<path d="M296.078 109.071L296.565 108.999C296.646 109.862 296.835 110.711 297.127 111.527C297.562 113.015 298.39 114.358 299.524 115.413C300.657 116.468 302.054 117.197 303.567 117.523C307.935 118.425 311.24 115.938 311.43 112.619C311.572 111.67 311.45 110.701 311.079 109.816C310.707 108.932 310.1 108.166 309.325 107.604C307.9 106.702 308.084 106.812 302.474 105.003C301.548 104.667 300.654 104.248 299.803 103.751C298.903 103.236 298.134 102.519 297.557 101.655C296.981 100.792 296.613 99.806 296.481 98.7755C296.35 97.7451 296.46 96.6981 296.801 95.7172C297.142 94.7363 297.706 93.8482 298.448 93.1231C299.294 92.2264 300.321 91.5218 301.461 91.0565C301.927 90.8316 302.418 90.664 302.924 90.5574C304.656 90.1363 306.47 90.2021 308.167 90.7478C308.503 90.8682 308.923 90.9668 310.233 91.5075C310.343 91.5445 310.457 91.5666 310.572 91.5731C311.937 91.884 312.606 91.6541 312.944 90.9755C313.021 90.8477 313.07 90.7053 313.088 90.5574H313.661V98.5236L313.211 98.5958C313.174 98.4054 313.088 98.1799 313.053 97.996C312.866 96.7932 312.432 95.6423 311.778 94.6159C311.125 93.5896 310.266 92.7101 309.257 92.0329C307.869 91.1549 306.223 90.7823 304.593 90.9777C303.857 91.0452 303.142 91.2646 302.494 91.6221C301.846 91.9796 301.278 92.4675 300.827 93.0552C297.487 97.5013 299.779 100.595 310.05 103.53C311.026 103.913 311.93 104.461 312.721 105.15C313.602 105.892 314.263 106.86 314.635 107.95C315.007 109.041 315.075 110.212 314.831 111.339C313.923 117.002 307.225 120.207 299.322 116.851C299.151 116.75 298.955 116.697 298.756 116.696C298.437 116.661 298.114 116.708 297.818 116.834C297.523 116.959 297.263 117.158 297.066 117.411C296.89 117.619 296.762 117.862 296.69 118.125H296.089L296.078 109.071Z" fill="white"/>
<path d="M80.6001 139.725H79.7395L78.0269 134.598L76.2794 139.725H75.4318L72.9351 133.171H73.8591L75.825 138.35L77.6119 133.171H78.4616L80.1785 138.35L82.1205 133.171H83.0423L80.6001 139.725Z" fill="white"/>
<path d="M88.3002 139.968C87.8024 140.035 87.296 139.996 86.8148 139.851C86.3336 139.707 85.8887 139.461 85.5097 139.131C85.1307 138.801 84.8263 138.393 84.6169 137.936C84.4076 137.478 84.298 136.981 84.2955 136.478C84.2929 135.974 84.3976 135.476 84.6024 135.017C84.8072 134.557 85.1075 134.146 85.4832 133.812C85.8589 133.478 86.3014 133.228 86.7811 133.079C87.2609 132.93 87.7668 132.885 88.2652 132.947C88.7674 132.908 89.2724 132.969 89.7504 133.128C90.2285 133.287 90.67 133.54 91.049 133.873C91.428 134.205 91.7368 134.61 91.9573 135.064C92.1777 135.518 92.3053 136.012 92.3326 136.516C92.3068 137.012 92.1805 137.499 91.9611 137.945C91.7417 138.391 91.4341 138.787 91.0568 139.11C90.6795 139.433 90.2404 139.676 89.7665 139.823C89.2926 139.971 88.7937 140.02 88.3002 139.968ZM88.2652 133.823C87.8794 133.759 87.4843 133.781 87.1077 133.886C86.7311 133.992 86.3822 134.179 86.0854 134.434C85.7887 134.689 85.5515 135.007 85.3903 135.364C85.2292 135.721 85.1482 136.109 85.1529 136.501C85.1576 136.893 85.2479 137.279 85.4176 137.632C85.5872 137.985 85.832 138.297 86.1348 138.545C86.4375 138.793 86.7908 138.971 87.1699 139.068C87.5489 139.164 87.9444 139.176 88.3286 139.103C88.7059 139.15 89.0888 139.119 89.454 139.013C89.8191 138.907 90.1588 138.727 90.4525 138.485C90.7461 138.243 90.9875 137.943 91.162 137.605C91.3366 137.266 91.4405 136.896 91.4676 136.516C91.4413 136.125 91.3366 135.744 91.1598 135.396C90.9829 135.047 90.7377 134.737 90.4386 134.486C90.1395 134.234 89.7929 134.046 89.4194 133.932C89.046 133.818 88.6534 133.781 88.2652 133.823Z" fill="white"/>
<path d="M100.64 139.725L98.7745 137.072H95.8605V139.725H95.0129V133.171H99.0825C100.334 133.171 101.577 133.668 101.577 135.112C101.567 135.592 101.38 136.051 101.052 136.4C100.724 136.749 100.278 136.964 99.8011 137.004L101.717 139.721L100.64 139.725ZM99.0825 134.046H95.8627V136.235H99.0825C99.8405 136.235 100.714 136.06 100.714 135.141C100.714 134.221 99.8295 134.046 99.0825 134.046Z" fill="white"/>
<path d="M104.314 139.725V133.171H105.162V138.862H109.428V139.725H104.314Z" fill="white"/>
<path d="M115.133 139.725H111.461V133.171H115.133C115.502 133.136 115.873 133.176 116.226 133.289C116.579 133.402 116.905 133.585 117.185 133.827C117.554 134.165 117.847 134.576 118.046 135.036C118.245 135.495 118.344 135.991 118.338 136.492C118.369 136.922 118.308 137.355 118.158 137.76C118.008 138.165 117.774 138.533 117.47 138.839C117.166 139.146 116.801 139.383 116.398 139.536C115.995 139.689 115.563 139.753 115.133 139.725ZM116.743 134.598C116.538 134.391 116.289 134.234 116.015 134.137C115.741 134.041 115.449 134.007 115.16 134.04H112.32V138.862H115.142C115.459 138.888 115.778 138.845 116.076 138.735C116.375 138.624 116.646 138.45 116.87 138.224C117.094 137.998 117.266 137.726 117.375 137.426C117.483 137.127 117.525 136.807 117.497 136.489C117.502 135.785 117.232 135.106 116.746 134.598H116.743Z" fill="white"/>
<path d="M132.253 139.725H131.379L129.671 134.598L127.923 139.725H127.073L124.566 133.175H125.492L127.458 138.355L129.245 133.175H130.092L131.816 138.355L133.753 133.175H134.677L132.253 139.725Z" fill="white"/>
<path d="M136.87 139.725V133.171H137.744V139.721L136.87 139.725Z" fill="white"/>
<path d="M146.971 139.725L142.384 134.471V139.725H141.536V133.171H142.384L146.971 138.425V133.171H147.821V139.721L146.971 139.725Z" fill="white"/>
<path d="M151.226 139.725V133.171H156.978V134.046H152.078V135.951H154.887V136.813H152.078V138.858H157.118V139.734L151.226 139.725Z" fill="white"/>
<path d="M168.723 137.264H165.571V139.725H164.698V133.171H168.715C170.058 133.171 171.034 133.808 171.034 135.239C171.034 136.671 170.036 137.264 168.723 137.264ZM168.723 134.053H165.571V136.4H168.723C169.534 136.4 170.191 136.196 170.191 135.257C170.191 134.318 169.569 134.046 168.723 134.046V134.053Z" fill="white"/>
<path d="M173.571 139.725V133.171H174.416V138.862H178.682V139.725H173.571Z" fill="white"/>
<path d="M180.814 139.725V133.171H186.563V134.046H181.659V135.951H184.475V136.813H181.659V138.858H186.703V139.734L180.814 139.725Z" fill="white"/>
<path d="M195.502 139.725L194.587 138.088H190.067L189.143 139.725H188.243L191.957 133.175H192.732L196.393 139.725H195.502ZM192.35 134.077L190.561 137.225H194.113L192.35 134.077Z" fill="white"/>
<path d="M201.444 139.968C200.714 139.966 199.989 139.868 199.285 139.674C198.621 139.512 197.997 139.214 197.453 138.799L197.868 138.015C198.018 138.127 198.173 138.234 198.324 138.343C199.249 138.872 200.3 139.14 201.365 139.118C202.121 139.118 203.667 138.952 203.667 137.899C203.667 137.072 202.857 136.805 202.16 136.783C201.505 136.756 200.849 136.743 200.194 136.732C199.117 136.706 197.938 136.148 197.938 134.918C197.938 133.407 199.574 132.947 200.804 132.947C201.986 132.921 203.151 133.239 204.157 133.862L203.766 134.637C202.912 134.038 201.878 133.751 200.838 133.825C200.168 133.825 198.805 133.965 198.805 134.907C198.805 135.616 199.561 135.857 200.146 135.87L201.97 135.909C203.171 135.933 204.541 136.481 204.541 137.879C204.545 139.523 202.769 139.968 201.444 139.968Z" fill="white"/>
<path d="M210.417 139.904C208.593 139.904 207.237 139.169 207.237 137.175V133.171H208.11V137.17C208.11 138.668 209.13 139.035 210.45 139.035C211.769 139.035 212.741 138.63 212.741 137.17V133.171H213.589V137.17C213.582 139.14 212.226 139.904 210.417 139.904Z" fill="white"/>
<path d="M222.713 139.725L220.854 137.072H217.94V139.725H217.088V133.171H221.153C222.409 133.171 223.648 133.668 223.648 135.112C223.639 135.591 223.453 136.05 223.126 136.399C222.799 136.748 222.355 136.964 221.879 137.004L223.788 139.721L222.713 139.725ZM221.153 134.033H217.94V136.222H221.153C221.913 136.222 222.787 136.047 222.787 135.128C222.787 134.208 221.903 134.046 221.153 134.046V134.033Z" fill="white"/>
<path d="M226.361 139.725V133.171H232.113V134.046H227.206V135.951H230.022V136.813H227.206V138.858H232.25V139.734L226.361 139.725Z" fill="white"/>
<path d="M238.299 139.968C237.57 139.966 236.845 139.868 236.143 139.674C235.478 139.512 234.854 139.214 234.31 138.799L234.723 138.015C234.876 138.127 235.029 138.234 235.184 138.343C236.109 138.872 237.16 139.14 238.225 139.118C238.98 139.118 240.527 138.952 240.527 137.899C240.527 137.072 239.719 136.805 239.02 136.783C238.364 136.756 237.709 136.743 237.054 136.732C235.977 136.706 234.797 136.148 234.797 134.918C234.797 133.407 236.431 132.947 237.661 132.947C238.843 132.921 240.008 133.239 241.014 133.862L240.625 134.637C239.771 134.038 238.736 133.751 237.696 133.825C237.025 133.825 235.662 133.965 235.662 134.907C235.662 135.616 236.416 135.857 237.003 135.87L238.827 135.909C240.031 135.933 241.401 136.481 241.401 137.879C241.407 139.523 239.631 139.968 238.299 139.968Z" fill="white"/>
</svg>
