<svg width="176" height="50" viewBox="0 0 176 50" fill="none" xmlns="http://www.w3.org/2000/svg">
<g clip-path="url(#clip0_101_2)">
<mask id="mask0_101_2" style="mask-type:luminance" maskUnits="userSpaceOnUse" x="0" y="0" width="176" height="50">
<path d="M176 0H0V50H176V0Z" fill="white"/>
</mask>
<g mask="url(#mask0_101_2)">
<path d="M5.66676 2.51339C4.27469 2.51548 2.94031 3.0646 1.95634 4.04027C0.97238 5.01594 0.41919 6.33849 0.418137 7.71778V44.3813C0.41919 45.7606 0.97238 47.0831 1.95634 48.0588C2.94031 49.0345 4.27469 49.5836 5.66676 49.5857H170.329C171.722 49.5846 173.057 49.036 174.042 48.0602C175.027 47.0844 175.581 45.7613 175.582 44.3813V7.71778C175.581 6.33781 175.027 5.01466 174.042 4.03888C173.057 3.06309 171.722 2.51444 170.329 2.51339H5.66676ZM170.329 50H5.66676C4.1638 49.9979 2.72306 49.4051 1.66068 48.3518C0.598296 47.2984 0.00105323 45.8705 0 44.3813V7.71778C0.00105482 6.22898 0.598425 4.80146 1.66092 3.74871C2.72341 2.69597 4.16416 2.10408 5.66676 2.10304H170.329C171.075 2.10148 171.813 2.24551 172.503 2.52688C173.192 2.80826 173.819 3.22146 174.347 3.74289C174.875 4.26432 175.294 4.88375 175.581 5.56578C175.867 6.24781 176.015 6.97907 176.016 7.71778V44.3813C176.014 45.8708 175.416 47.2987 174.353 48.352C173.29 49.4052 171.849 49.9979 170.345 50" fill="white"/>
<path d="M40.193 20.0285H38.9186L36.9554 13.3287L35.0041 20.0285H33.7298L31.209 10.468H32.7541L34.4346 17.302L36.374 10.468H37.5527L39.4921 17.302L41.1726 10.468H42.7177L40.193 20.0285Z" fill="white"/>
<path d="M45.589 10.468H44.1235V20.0324H45.589V10.468Z" fill="white"/>
<path d="M54.0355 20.0285L49.5753 13.301V20.0285H48.1099V10.468H49.4519L53.912 17.1836V10.468H55.3775V20.0285H54.0355Z" fill="white"/>
<path d="M57.894 20.0285V10.468H64.0626V11.7701H59.3595V14.5637H63.3736V15.8539H59.3595V18.7264H64.0626V20.0285H57.894Z" fill="white"/>
<path d="M65.9226 14.5517H66.504V20.0283H65.9186L65.9226 14.5517ZM66.2212 12.7209C66.136 12.7224 66.0523 12.6989 65.9806 12.6532C65.9089 12.6075 65.8525 12.5417 65.8187 12.4642C65.7848 12.3867 65.7749 12.301 65.7903 12.218C65.8056 12.1349 65.8455 12.0582 65.905 11.9977C65.9644 11.9372 66.0406 11.8955 66.124 11.8779C66.2074 11.8604 66.2941 11.8678 66.3732 11.8992C66.4523 11.9306 66.5203 11.9846 66.5683 12.0543C66.6164 12.124 66.6426 12.2063 66.6434 12.2908C66.6434 12.4028 66.5993 12.5104 66.5205 12.5908C66.4416 12.6711 66.3343 12.7178 66.2212 12.7209Z" fill="white"/>
<path d="M72.4016 20.0284V16.6312C72.4016 15.5737 71.864 14.9937 70.8764 14.9937C69.8888 14.9937 69.3154 15.5974 69.3154 16.6312V20.0284H68.73V14.5518H69.3154V15.1989C69.7084 14.7794 70.249 14.5255 70.8255 14.4895C71.4021 14.4535 71.9705 14.6383 72.4136 15.0056C72.6081 15.2079 72.7591 15.4471 72.8577 15.7089C72.9563 15.9707 73.0002 16.2495 72.987 16.5286V20.0284H72.4016Z" fill="white"/>
<path d="M82.3411 20.0285V13.6364L80.115 18.2963H79.0318L76.754 13.6364V20.0285H75.2925V10.468H76.754L79.5734 16.4181L82.3411 10.468H83.8026V20.0285H82.3411Z" fill="white"/>
<path d="M90.8634 12.2789C90.6753 12.0913 90.4517 11.9423 90.2053 11.8407C89.9589 11.7391 89.6946 11.6867 89.4278 11.6867C89.1609 11.6867 88.8966 11.7391 88.6502 11.8407C88.4038 11.9423 88.1802 12.0913 87.9922 12.2789C87.5183 12.7879 87.4227 13.3285 87.4227 15.25C87.4227 17.1716 87.5183 17.7043 87.9922 18.2172C88.1802 18.4049 88.4038 18.5538 88.6502 18.6554C88.8966 18.7571 89.1609 18.8094 89.4278 18.8094C89.6946 18.8094 89.9589 18.7571 90.2053 18.6554C90.4517 18.5538 90.6753 18.4049 90.8634 18.2172C91.3412 17.7043 91.4328 17.1677 91.4328 15.25C91.4328 13.3324 91.3412 12.7879 90.8634 12.2789ZM91.9903 19.0892C91.3101 19.7448 90.3986 20.1116 89.4497 20.1116C88.5007 20.1116 87.5892 19.7448 86.909 19.0892C85.9612 18.1501 85.9732 17.0887 85.9732 15.25C85.9732 13.4113 85.9732 12.346 86.909 11.4069C87.5892 10.7513 88.5007 10.3845 89.4497 10.3845C90.3986 10.3845 91.3101 10.7513 91.9903 11.4069C92.9421 12.346 92.9142 13.4074 92.9142 15.25C92.9142 17.0927 92.9421 18.1501 91.9903 19.0892Z" fill="white"/>
<path d="M99.9549 12.4131C99.7453 12.1939 99.4898 12.0228 99.2064 11.9117C98.923 11.8006 98.6185 11.7522 98.3142 11.77H96.5302V18.7263H98.3063C98.6119 18.7452 98.9179 18.6974 99.2028 18.5863C99.4877 18.4752 99.7444 18.3034 99.9549 18.0831C100.457 17.5307 100.469 16.5048 100.469 15.183C100.469 13.8612 100.469 12.9655 99.9549 12.421V12.4131ZM100.958 19.1287C100.623 19.4343 100.231 19.6712 99.8028 19.8256C99.375 19.98 98.9205 20.0489 98.4656 20.0283H95.0767V10.4679H98.4656C98.9205 10.4474 99.375 10.5163 99.8028 10.6707C100.231 10.8251 100.623 11.0619 100.958 11.3675C101.994 12.4013 101.946 13.8099 101.946 15.183C101.946 16.5561 102.014 18.0949 100.97 19.1287" fill="white"/>
<path d="M104.092 20.0285V10.468H110.261V11.7701H105.558V14.5637H109.572V15.8539H105.558V18.7264H110.261V20.0285H104.092Z" fill="white"/>
<path d="M115.884 11.7701H113.713V14.7649H115.884C116.859 14.7649 117.524 14.2125 117.524 13.2734C117.524 12.3343 116.859 11.7701 115.884 11.7701ZM117.58 20.0285L115.545 15.9999H113.713V20.0285H112.252V10.468H115.991C117.823 10.468 118.986 11.6517 118.986 13.2616C119.007 13.8347 118.829 14.3977 118.482 14.8565C118.135 15.3154 117.64 15.6424 117.078 15.7829L119.301 20.0127L117.58 20.0285Z" fill="white"/>
<path d="M124.155 12.6264L122.654 16.8719H125.625L124.155 12.6264ZM126.688 20.0246L126.027 18.1069H122.216L121.555 20.0246H119.994L123.534 10.4641H124.729L128.265 20.0246H126.688Z" fill="white"/>
<path d="M132.068 11.7701V20.0285H130.606V11.7701H127.95V10.468H134.728V11.7701H132.068Z" fill="white"/>
<path d="M137.858 10.468H136.393V20.0324H137.858V10.468Z" fill="white"/>
<path d="M144.955 12.279C144.766 12.0912 144.542 11.9422 144.295 11.8405C144.049 11.7388 143.784 11.6864 143.517 11.6864C143.25 11.6864 142.985 11.7388 142.738 11.8405C142.492 11.9422 142.268 12.0912 142.079 12.279C141.605 12.7879 141.51 13.3285 141.51 15.2501C141.51 17.1716 141.605 17.7043 142.079 18.2172C142.268 18.405 142.492 18.554 142.738 18.6557C142.985 18.7574 143.25 18.8098 143.517 18.8098C143.784 18.8098 144.049 18.7574 144.295 18.6557C144.542 18.554 144.766 18.405 144.955 18.2172C145.428 17.7043 145.524 17.1677 145.524 15.2501C145.524 13.3325 145.428 12.7879 144.955 12.279ZM146.066 19.0892C145.384 19.7442 144.472 20.1105 143.523 20.1105C142.574 20.1105 141.662 19.7442 140.98 19.0892C140.032 18.1502 140.048 17.0888 140.048 15.2501C140.048 13.4114 140.048 12.346 140.98 11.407C141.662 10.752 142.574 10.3857 143.523 10.3857C144.472 10.3857 145.384 10.752 146.066 11.407C147.017 12.346 146.989 13.4074 146.989 15.2501C146.989 17.0927 147.017 18.1502 146.066 19.0892Z" fill="white"/>
<path d="M155.057 20.0285L150.597 13.301V20.0285H149.136V10.468H150.478L154.938 17.1836V10.468H156.399V20.0285H155.057Z" fill="white"/>
<path d="M15.7616 5.01499C15.7616 6.00686 15.4647 6.97646 14.9086 7.80117C14.3524 8.62588 13.5619 9.26867 12.6371 9.64824C11.7122 10.0278 10.6945 10.1271 9.71269 9.93362C8.73086 9.74012 7.829 9.26249 7.12114 8.56113C6.41328 7.85977 5.93123 6.96618 5.73593 5.99337C5.54063 5.02056 5.64086 4.01221 6.02395 3.09584C6.40704 2.17947 7.05578 1.39623 7.88813 0.845179C8.72049 0.294124 9.69907 0 10.7001 0C12.0422 0.00104498 13.329 0.529744 14.2779 1.47001C15.2269 2.41028 15.7605 3.68525 15.7616 5.01499Z" fill="white"/>
<path d="M27.9593 5.01499C27.9593 6.0067 27.6626 6.97614 27.1066 7.80076C26.5506 8.62539 25.7604 9.26818 24.8357 9.64787C23.9111 10.0276 22.8936 10.1271 21.9119 9.93391C20.9302 9.74073 20.0283 9.26349 19.3203 8.56252C18.6123 7.86156 18.1299 6.96834 17.9342 5.99579C17.7384 5.02323 17.8381 4.01501 18.2206 3.09857C18.603 2.18213 19.2512 1.39863 20.083 0.847096C20.9148 0.295568 21.893 0.000780255 22.8939 0C24.2366 -4.11136e-07 25.5245 0.528238 26.4743 1.46862C27.4241 2.409 27.9583 3.68457 27.9593 5.01499Z" fill="white"/>
<path d="M21.8628 15.2777C21.8628 16.2704 21.5657 17.2407 21.0091 18.0661C20.4525 18.8915 19.6614 19.5348 18.7358 19.9146C17.8102 20.2945 16.7918 20.3939 15.8092 20.2002C14.8266 20.0066 13.924 19.5286 13.2156 18.8267C12.5072 18.1247 12.0247 17.2305 11.8293 16.2569C11.6338 15.2833 11.7341 14.2742 12.1175 13.3571C12.5009 12.44 13.1502 11.6561 13.9832 11.1046C14.8162 10.5531 15.7955 10.2588 16.7974 10.2588C18.1408 10.2588 19.4292 10.7876 20.3792 11.7288C21.3291 12.67 21.8628 13.9466 21.8628 15.2777Z" fill="white"/>
<path d="M67.7341 35.4561H67.3159V42.4991H67.7341V35.4561Z" fill="white"/>
<path d="M124.689 35.4561H124.271V42.4991H124.689V35.4561Z" fill="white"/>
<path d="M159.306 27.9475H16.3232V28.3618H159.306V27.9475Z" fill="white"/>
<path d="M20.7079 40.9012V41.6904H16.415V36.3755H20.6362V37.1646H17.4504V38.589H20.5088V39.3782H17.4664V40.9131L20.7079 40.9012Z" fill="white"/>
<path d="M20.7079 41.7061H16.415V36.3755H20.6362V37.1646H17.4743V38.5693H20.5088V39.3584H17.4743V40.8775H20.7079V41.6667V41.7061ZM16.4429 41.7061H20.68V40.917H17.4664V39.3663H20.4969V38.6166H17.4664V37.1686H20.6243V36.3794H16.423L16.4429 41.7061Z" fill="white"/>
<path d="M22.1055 40.3015L22.9816 39.9069C23.2404 40.5737 23.8298 41.0433 24.8413 41.0433C25.6377 41.0433 26.1594 40.8105 26.1594 40.2541C26.1594 39.7609 25.8408 39.5794 25.1678 39.465L24.017 39.3072C23.0055 39.1493 22.4241 38.6956 22.4241 37.7802C22.4241 36.8648 23.2842 36.2019 24.7298 36.2019C25.9484 36.2019 26.8483 36.628 27.2028 37.5356L26.3864 37.9696C26.1435 37.3343 25.5899 36.9753 24.686 36.9753C23.9214 36.9753 23.4674 37.2436 23.4674 37.7013C23.4674 38.159 23.7223 38.3444 24.4032 38.451L25.5103 38.6167C26.6214 38.7785 27.2267 39.1928 27.2267 40.1437C27.2267 41.0946 26.3944 41.8245 24.8134 41.8245C23.336 41.8482 22.4161 41.2485 22.1055 40.3015Z" fill="white"/>
<path d="M24.8057 41.8561C24.1818 41.8759 23.5641 41.7287 23.0175 41.43C22.5777 41.18 22.2482 40.7761 22.0938 40.2976L22.9698 39.903C23.169 40.4199 23.6548 41.0354 24.8216 41.0354C25.4189 41.0354 26.1278 40.9013 26.1278 40.2463C26.1278 39.7294 25.7694 39.5716 25.1481 39.4572L23.9972 39.2993C22.914 39.1297 22.3845 38.6286 22.3845 37.7605C22.3801 37.5312 22.4343 37.3046 22.5422 37.1017C22.6501 36.8989 22.8082 36.7264 23.0016 36.6005C23.5123 36.2923 24.105 36.1438 24.7021 36.1743C25.9844 36.1743 26.8405 36.6399 27.187 37.5159L26.3906 37.9499C26.1397 37.291 25.5702 36.9595 24.698 36.9595C23.9414 36.9595 23.5035 37.2278 23.5035 37.6776C23.5035 38.1274 23.7583 38.3129 24.4353 38.4155L25.4866 38.6286C25.9496 38.6678 26.393 38.8315 26.7689 39.102C26.9199 39.2343 27.0382 39.3991 27.1149 39.5838C27.1915 39.7685 27.2244 39.9681 27.211 40.1674C27.2269 41.2248 26.3229 41.8561 24.8057 41.8561ZM22.1175 40.3094C22.2673 40.7828 22.5915 41.1829 23.0256 41.43C23.5724 41.7176 24.1873 41.8539 24.8057 41.8246C26.311 41.8246 27.195 41.2012 27.195 40.1555C27.207 39.2796 26.6813 38.8258 25.4866 38.668L24.3834 38.5023C23.6945 38.3958 23.4358 38.1906 23.4358 37.7447C23.4358 37.2989 23.8937 36.9871 24.6902 36.9871C25.5663 36.9871 26.1397 37.3225 26.3946 37.9815L27.191 37.5553C26.8486 36.6912 25.9963 36.2335 24.7299 36.2335C24.1371 36.2037 23.5491 36.3508 23.0415 36.6557C22.8506 36.7798 22.6944 36.9499 22.5879 37.15C22.4813 37.3501 22.4277 37.5737 22.4321 37.8C22.4321 38.6562 22.9539 39.1533 24.0251 39.3191L25.172 39.4769C25.8052 39.5755 26.1716 39.7373 26.1716 40.266C26.1716 40.7947 25.7136 41.0552 24.8455 41.0552C23.6747 41.0552 23.1849 40.4396 22.9818 39.9188L22.1175 40.3094Z" fill="white"/>
<path d="M28.6484 39.0349C28.6484 37.3659 29.7754 36.2256 31.5993 36.2256C33.0966 36.2256 34.0364 36.9753 34.2714 38.159L33.1882 38.3168C33.1318 37.9422 32.933 37.6031 32.6323 37.369C32.3317 37.135 31.9521 37.0238 31.5714 37.0581C30.4285 37.0581 29.7396 37.8473 29.7396 39.031C29.7396 40.2147 30.4285 41.0038 31.5913 41.0038C31.964 41.0304 32.3338 40.9229 32.633 40.7011C32.9321 40.4793 33.1406 40.1582 33.2201 39.7965L34.2714 39.9977C33.9528 41.1222 33.0448 41.8443 31.5634 41.8443C29.6918 41.8482 28.6484 40.6842 28.6484 39.0349Z" fill="white"/>
<path d="M31.5635 41.856C31.1674 41.8754 30.7714 41.8156 30.3992 41.68C30.027 41.5444 29.6862 41.3359 29.3972 41.0668C29.1421 40.7942 28.944 40.4744 28.8142 40.1256C28.6843 39.7769 28.6253 39.4062 28.6405 39.0348C28.6405 37.3224 29.8033 36.2136 31.5993 36.2136C33.0569 36.2136 34.0365 36.9239 34.2794 38.1589L33.1962 38.3167C33.1351 37.9561 32.9423 37.6303 32.6546 37.4013C32.3433 37.1693 31.9607 37.0508 31.5715 37.0659C30.4445 37.0659 29.7476 37.8195 29.7476 39.0387C29.7476 40.258 30.4724 41.0116 31.5914 41.0116C31.9596 41.0403 32.3259 40.9364 32.6229 40.7189C32.92 40.5015 33.1278 40.1851 33.2082 39.8279L34.2595 40.0291C33.9409 41.201 32.9772 41.856 31.5635 41.856ZM31.5993 36.2334C29.8153 36.2334 28.6604 37.3342 28.6604 39.0348C28.6452 39.4041 28.7038 39.7727 28.833 40.1194C28.9622 40.4661 29.1593 40.7841 29.4131 41.055C29.7001 41.3223 30.0383 41.5298 30.4076 41.6653C30.777 41.8009 31.17 41.8617 31.5635 41.8441C32.9653 41.8441 33.921 41.197 34.2595 40.0173L33.2241 39.82C33.1403 40.1784 32.9294 40.4951 32.6297 40.7124C32.33 40.9297 31.9615 41.0331 31.5914 41.0037C30.4604 41.0037 29.7277 40.2146 29.7277 39.0309C29.7277 37.8471 30.4325 37.058 31.5715 37.058C31.9527 37.0254 32.3323 37.1371 32.6338 37.3706C32.9352 37.6042 33.1362 37.9422 33.1962 38.3167L34.2476 38.151C34.0126 36.9317 33.0529 36.2334 31.5993 36.2334Z" fill="white"/>
<path d="M35.7368 39.0349C35.7368 37.3107 36.9315 36.2256 38.7036 36.2256C40.4757 36.2256 41.6704 37.3107 41.6704 39.0349C41.6704 40.7592 40.4757 41.8482 38.7036 41.8482C36.9315 41.8482 35.7368 40.7434 35.7368 39.0349ZM40.5713 39.0349C40.5713 37.8157 39.8545 37.0423 38.7036 37.0423C37.5527 37.0423 36.8359 37.8315 36.8359 39.0349C36.8359 40.2384 37.5527 41.0354 38.7036 41.0354C39.8545 41.0354 40.5713 40.2463 40.5713 39.0349Z" fill="white"/>
<path d="M38.7038 41.856C36.8958 41.856 35.729 40.7512 35.729 39.0348C35.729 37.3184 36.8958 36.2136 38.7038 36.2136C40.5117 36.2136 41.6785 37.3224 41.6785 39.0348C41.6785 40.7472 40.5117 41.856 38.7038 41.856ZM38.7038 36.2334C37.9163 36.2013 37.147 36.4728 36.5573 36.9909C36.2891 37.2585 36.0799 37.5783 35.9428 37.9301C35.8057 38.2819 35.7437 38.6581 35.7609 39.0348C35.7609 40.7393 36.9197 41.8363 38.7157 41.8363C40.5117 41.8363 41.6705 40.7393 41.6705 39.0348C41.6869 38.6582 41.6247 38.2822 41.4876 37.9305C41.3506 37.5788 41.1417 37.2589 40.8741 36.9909C40.278 36.4677 39.4992 36.1959 38.7038 36.2334ZM38.7038 41.0392C38.4487 41.0491 38.1943 41.0053 37.9575 40.9108C37.7207 40.8163 37.5068 40.6731 37.3299 40.4908C37.0014 40.0745 36.823 39.5612 36.823 39.0328C36.823 38.5044 37.0014 37.9912 37.3299 37.5749C37.7002 37.2251 38.1922 37.03 38.7038 37.03C39.2154 37.03 39.7073 37.2251 40.0776 37.5749C40.408 37.9919 40.5876 38.5067 40.5876 39.0368C40.5876 39.5669 40.408 40.0817 40.0776 40.4987C39.8995 40.6787 39.6851 40.8195 39.4484 40.9119C39.2117 41.0044 38.9579 41.0464 38.7038 41.0353V41.0392ZM38.7038 37.0541C37.5569 37.0541 36.844 37.8116 36.844 39.0269C36.8212 39.5538 37.0004 40.0698 37.3458 40.471C37.5187 40.6552 37.7293 40.8008 37.9634 40.8981C38.1976 40.9954 38.45 41.0421 38.7038 41.0353C39.8506 41.0353 40.5635 40.2738 40.5635 39.0624C40.5635 37.8511 39.8506 37.0541 38.7038 37.0541Z" fill="white"/>
<path d="M43.5259 36.3755H44.5772V40.8499H47.5559V41.6982H43.5259V36.3755Z" fill="white"/>
<path d="M47.5559 41.7061H43.5259V36.3755H44.5772V40.842H47.548V41.6904L47.5559 41.7061ZM43.5338 41.7061H47.548V40.8815H44.5772V36.3834H43.5458L43.5338 41.7061Z" fill="white"/>
<path d="M54.4492 41.6982H53.3979V39.39H50.4034V41.6982H49.3521V36.3755H50.4034V38.5851H53.3979V36.3755H54.4492V41.6982Z" fill="white"/>
<path d="M54.4495 41.7061H53.3981V39.3979H50.4234V41.6982H49.3721V36.3755H50.4234V38.5772H53.3981V36.3755H54.4495V41.6982V41.7061ZM53.4061 41.7061H54.4375V36.3834H53.4061V38.5851H50.4114V36.3834H49.38V41.6864H50.4114V39.39H53.4061V41.7061Z" fill="white"/>
<path d="M60.4269 40.4001H57.8026L57.2729 41.6982H56.1738L58.5393 36.3755H59.734L62.0755 41.6982H60.9804L60.4269 40.4001ZM60.1242 39.6425L59.4592 38.009C59.3176 37.7361 59.2055 37.4491 59.1247 37.1528C59.0406 37.4486 58.9273 37.7354 58.7862 38.009L58.1212 39.6425H60.1242Z" fill="white"/>
<path d="M62.0516 41.7061H60.9565L60.4269 40.4158H57.8145L57.2888 41.7061H56.1499L58.4955 36.3833H59.6901L62.0357 41.7061H62.0516ZM60.9645 41.7061H62.0397L59.7021 36.403H58.5393L56.2017 41.7061H57.2769L57.8025 40.4158H60.4468L60.9645 41.7061ZM60.1322 39.6543H58.1052L58.7702 38.0208C58.9092 37.7475 59.0225 37.4623 59.1087 37.1685C59.1892 37.463 59.2999 37.7486 59.4392 38.0208L60.1043 39.6543H60.1322ZM58.141 39.6543H60.1322L59.4751 38.0326C59.3347 37.7619 59.2226 37.4776 59.1406 37.1843C59.0549 37.477 58.9416 37.761 58.8021 38.0326L58.141 39.6543Z" fill="white"/>
<path d="M77.5109 38.0327C77.5109 39.0743 76.7144 39.7333 75.4919 39.7333H73.899V41.7061H72.8477V36.3755H75.5556C76.7463 36.3755 77.5109 37.0186 77.5109 38.0327ZM76.4158 38.0327C76.4158 37.4724 76.0175 37.1291 75.3246 37.1291H73.8791V38.9481H75.3246C75.9976 38.9678 76.4158 38.6166 76.4158 38.0524V38.0327Z" fill="white"/>
<path d="M73.8788 41.706H72.8275V36.3754H75.5354C76.0576 36.3514 76.5714 36.5122 76.9849 36.8291C77.1606 36.979 77.3001 37.1659 77.3931 37.3763C77.4862 37.5866 77.5304 37.8149 77.5225 38.0444C77.5301 38.28 77.4843 38.5143 77.3885 38.7301C77.2927 38.9458 77.1494 39.1376 76.969 39.2913C76.5479 39.6148 76.0239 39.7786 75.4916 39.7529H73.8987V41.7258C73.8987 41.7258 73.8867 41.706 73.8788 41.706ZM72.8394 41.706H73.8708V39.7332H75.4637C75.9916 39.7585 76.5113 39.5962 76.9292 39.2755C77.1078 39.1242 77.2496 38.9349 77.344 38.7218C77.4385 38.5086 77.4832 38.2771 77.4748 38.0444C77.4797 37.8207 77.4348 37.5986 77.3432 37.394C77.2517 37.1894 77.1157 37.0073 76.9451 36.8607C76.5344 36.548 76.0249 36.39 75.5075 36.4149H72.8115L72.8394 41.706ZM75.3243 38.9993H73.8788V37.1488H75.3243C76.0133 37.1488 76.4234 37.492 76.4234 38.0642C76.4234 38.6363 76.0053 38.9796 75.3243 38.9796V38.9993ZM73.8907 38.9796H75.3243C75.9934 38.9796 76.4035 38.6323 76.4035 38.072C76.4035 37.5118 76.0053 37.1764 75.3243 37.1764H73.8907V38.9796Z" fill="white"/>
<path d="M82.2696 40.4001H79.6453L79.1156 41.6982H78.0205L80.3661 36.3755H81.5607L83.9063 41.6982H82.8072L82.2696 40.4001ZM81.9709 39.6425L81.3019 38.009C81.1615 37.736 81.0507 37.449 80.9714 37.1528C80.8841 37.448 80.7694 37.7347 80.6289 38.009L79.9639 39.6425H81.9709Z" fill="white"/>
<path d="M83.8945 41.7061H83.8825H82.8073H82.7914L82.2658 40.4158H79.6454L79.1198 41.7061H78.0127L80.3543 36.3833H81.5489L83.8945 41.7061Z" fill="white"/>
<path d="M88.0279 39.6149H86.6739V41.6982H85.6187V36.3755H88.3664C89.8478 36.3755 90.3097 37.1646 90.3097 37.9853C90.3181 38.3331 90.2031 38.6728 89.9848 38.9453C89.7665 39.2178 89.4588 39.4059 89.1151 39.4768L90.5009 41.6982H89.3062L88.0279 39.6149ZM86.6739 38.8652H88.1713C88.9677 38.8652 89.2186 38.4707 89.2186 37.9932C89.2186 37.5158 88.9598 37.1488 88.1713 37.1488H86.6739V38.8652Z" fill="white"/>
<path d="M90.4969 41.7061H89.3022L88.008 39.6228H86.67V41.6982H85.6187V36.3755H88.3664C90.0668 36.3755 90.3217 37.3935 90.3217 37.9972C90.3296 38.3457 90.2146 38.6861 89.9965 38.9598C89.7785 39.2334 89.471 39.4232 89.127 39.4965L90.5049 41.7022L90.4969 41.7061ZM89.3222 41.7061H90.477L89.1031 39.5044C89.4462 39.4351 89.7538 39.2486 89.9722 38.9774C90.1905 38.7063 90.3058 38.3677 90.2978 38.0208C90.2978 37.425 90.0429 36.4189 88.3624 36.4189H85.6187V41.7219H86.6501V39.6149H88.012L89.3222 41.7061ZM88.1713 38.8928H86.6739V37.1488H88.1713C89.0434 37.1488 89.2266 37.6144 89.2266 38.0051C89.2321 38.1184 89.2144 38.2317 89.1747 38.3381C89.1351 38.4445 89.0741 38.542 88.9956 38.6245C88.7641 38.8108 88.4683 38.9 88.1713 38.8731V38.8928ZM86.6859 38.8928H88.1713C89.0275 38.8928 89.2067 38.4273 89.2067 38.0327C89.2067 37.3422 88.6452 37.1962 88.1713 37.1962H86.6859V38.8928Z" fill="white"/>
<path d="M96.4742 37.208H94.5309V41.6982H93.4756V37.208H91.5322V36.3755H96.4742V37.208Z" fill="white"/>
<path d="M94.5307 41.7061H93.4754V37.2159H91.54V36.3755H96.482V37.208H94.5387V41.6904L94.5307 41.7061ZM93.4874 41.7061H94.5188V37.208H96.4502V36.3834H91.544V37.1962H93.4754L93.4874 41.7061Z" fill="white"/>
<path d="M98.147 41.6982V36.3755H99.1983V41.6982H98.147Z" fill="white"/>
<path d="M99.1983 41.7061H98.147V36.3755H99.1983V41.6982V41.7061ZM98.1549 41.7061H99.1863V36.3834H98.1549V41.7061Z" fill="white"/>
<path d="M101.52 36.3755H102.571V40.8499H105.554V41.6982H101.52V36.3755Z" fill="white"/>
<path d="M105.554 41.7061H101.52V36.3755H102.571V40.842H105.542V41.6904L105.554 41.7061ZM101.531 41.7061H105.53V40.8815H102.559V36.3834H101.547L101.531 41.7061Z" fill="white"/>
<path d="M112.447 41.6982H111.396V39.39H108.397V41.6982H107.346V36.3755H108.397V38.5851H111.396V36.3755H112.447V41.6982Z" fill="white"/>
<path d="M112.447 41.7061H111.396V39.3979H108.421V41.6982H107.37V36.3755H108.421V38.5772H111.396V36.3755H112.447V41.6982V41.7061ZM111.404 41.7061H112.435V36.3834H111.404V38.5851H108.397V36.3834H107.366V41.6864H108.397V39.39H111.396L111.404 41.7061Z" fill="white"/>
<path d="M119.042 40.9012V41.6904H114.769V36.3755H118.99V37.1646H115.804V38.589H118.846V39.3782H115.804V40.9131L119.042 40.9012Z" fill="white"/>
<path d="M119.042 41.7061H114.769V36.3755H118.99V37.1646H115.832V38.5693H118.862V39.3584H115.832V40.8775H119.042V41.6667C119.042 41.6667 119.069 41.7061 119.042 41.7061ZM114.781 41.7061H119.034V40.917H115.82V39.3663H118.85V38.6166H115.82V37.1686H118.982V36.3794H114.781V41.7061Z" fill="white"/>
<path d="M129.822 39.0349C129.822 37.3659 130.949 36.2256 132.773 36.2256C134.27 36.2256 135.21 36.9753 135.445 38.159L134.362 38.3168C134.305 37.9422 134.106 37.6031 133.806 37.369C133.505 37.135 133.125 37.0238 132.745 37.0581C131.602 37.0581 130.913 37.8473 130.913 39.031C130.913 40.2147 131.602 41.0038 132.765 41.0038C133.138 41.0312 133.508 40.924 133.807 40.7021C134.106 40.4802 134.315 40.1586 134.393 39.7965L135.445 39.9977C135.126 41.1222 134.218 41.8443 132.737 41.8443C130.865 41.8482 129.822 40.6842 129.822 39.0349Z" fill="white"/>
<path d="M132.733 41.856C132.337 41.8748 131.941 41.8146 131.569 41.679C131.197 41.5435 130.856 41.3353 130.567 41.0668C130.312 40.7942 130.113 40.4744 129.984 40.1256C129.854 39.7769 129.795 39.4062 129.81 39.0348C129.81 37.3224 130.973 36.2136 132.769 36.2136C134.23 36.2136 135.206 36.9239 135.449 38.1589L134.37 38.3167C134.313 37.9584 134.126 37.6329 133.844 37.4013C133.533 37.1687 133.15 37.0502 132.761 37.0659C131.638 37.0659 130.941 37.8195 130.941 39.0388C130.941 40.258 131.662 41.0116 132.781 41.0116C133.149 41.0412 133.516 40.9376 133.813 40.72C134.11 40.5024 134.318 40.1855 134.398 39.8279L135.449 40.0291C135.114 41.201 134.147 41.856 132.733 41.856ZM132.769 36.2334C130.985 36.2334 129.83 37.3342 129.83 39.0348C129.815 39.4041 129.873 39.7727 130.002 40.1194C130.132 40.4661 130.329 40.7841 130.583 41.055C130.87 41.3223 131.208 41.5298 131.577 41.6653C131.946 41.8009 132.339 41.8617 132.733 41.8441C134.135 41.8441 135.09 41.197 135.429 40.0173L134.398 39.82C134.313 40.1788 134.101 40.4955 133.801 40.7128C133.5 40.93 133.131 41.0332 132.761 41.0037C131.63 41.0037 130.897 40.2146 130.897 39.0309C130.897 37.8471 131.606 37.058 132.741 37.058C133.122 37.0254 133.502 37.1371 133.803 37.3706C134.105 37.6042 134.306 37.9422 134.366 38.3167L135.429 38.1628C135.182 36.9317 134.202 36.2334 132.769 36.2334Z" fill="white"/>
<path d="M138.212 36.3755V39.5321C138.212 39.9245 138.37 40.3008 138.65 40.5783C138.93 40.8558 139.31 41.0117 139.706 41.0117C140.102 41.0117 140.482 40.8558 140.762 40.5783C141.042 40.3008 141.199 39.9245 141.199 39.5321V36.3755H142.25V39.607C142.25 40.9407 141.335 41.8482 139.71 41.8482C138.085 41.8482 137.161 40.9407 137.161 39.607V36.3755H138.212Z" fill="white"/>
<path d="M139.71 41.8562C138.117 41.8562 137.149 40.996 137.149 39.6071V36.3756H138.2V39.5321C138.187 39.728 138.216 39.9243 138.287 40.1077C138.357 40.2911 138.467 40.4572 138.609 40.5945C138.75 40.7318 138.92 40.837 139.107 40.9029C139.294 40.9688 139.492 40.9938 139.69 40.9763C139.889 40.9865 140.088 40.9568 140.276 40.889C140.463 40.8212 140.635 40.7167 140.781 40.5817C140.913 40.4436 141.017 40.2807 141.085 40.1025C141.154 39.9243 141.185 39.7345 141.179 39.544V36.3874H142.23V39.6189C142.262 40.996 141.283 41.8562 139.71 41.8562ZM137.169 36.3835V39.6071C137.169 40.9842 138.141 41.8364 139.71 41.8364C141.279 41.8364 142.242 40.9842 142.242 39.6071V36.3835H141.211V39.54C141.224 39.9295 141.081 40.3082 140.813 40.5935C140.664 40.7294 140.49 40.8343 140.299 40.9021C140.109 40.9699 139.907 40.9991 139.706 40.9881C139.505 41.0063 139.304 40.9812 139.115 40.9146C138.925 40.8479 138.753 40.7412 138.609 40.602C138.466 40.4627 138.354 40.2942 138.283 40.1081C138.212 39.922 138.182 39.7228 138.196 39.5242V36.3677L137.169 36.3835Z" fill="white"/>
<path d="M144.421 41.6982V36.3755H145.476V41.6982H144.421Z" fill="white"/>
<path d="M145.476 41.7061H144.421V36.3755H145.476V41.6982V41.7061ZM144.433 41.7061H145.464V36.3834H144.433V41.7061Z" fill="white"/>
<path d="M147.798 36.3755H150.271C152.003 36.3755 153.138 37.3659 153.138 38.9915C153.138 40.6171 151.979 41.6982 150.263 41.6982H147.798V36.3755ZM150.187 40.917C151.354 40.917 152.035 40.1279 152.035 38.9994C152.055 38.7517 152.021 38.5027 151.935 38.2694C151.848 38.0362 151.712 37.8243 151.535 37.6486C151.357 37.4729 151.143 37.3376 150.908 37.252C150.673 37.1663 150.421 37.1325 150.171 37.1528H148.841V40.917H150.187Z" fill="white"/>
<path d="M150.263 41.7061H147.798V36.3755H150.271C151.032 36.3424 151.777 36.5929 152.361 37.0778C152.625 37.3241 152.832 37.6233 152.969 37.9553C153.107 38.2874 153.171 38.6447 153.158 39.0033C153.15 40.6171 151.987 41.7061 150.263 41.7061ZM147.805 41.7061H150.263C151.975 41.7061 153.126 40.625 153.126 39.0112C153.139 38.6549 153.075 38.2998 152.938 37.9703C152.8 37.6408 152.593 37.3444 152.329 37.1015C151.751 36.618 151.01 36.3686 150.255 36.4031H147.79L147.805 41.7061ZM150.195 40.9485H148.849V37.1528H150.179C150.43 37.1325 150.682 37.1665 150.919 37.2526C151.155 37.3386 151.37 37.4745 151.548 37.6509C151.726 37.8274 151.863 38.0401 151.95 38.2743C152.037 38.5085 152.071 38.7586 152.051 39.0073C152.051 40.1712 151.326 40.9288 150.195 40.9288V40.9485ZM148.857 40.9485H150.195C151.31 40.9485 152.031 40.1989 152.031 39.0388C152.051 38.7927 152.017 38.5452 151.932 38.3133C151.846 38.0815 151.71 37.871 151.534 37.6964C151.358 37.5218 151.145 37.3873 150.911 37.3023C150.677 37.2173 150.427 37.1837 150.179 37.2041H148.857V40.9485Z" fill="white"/>
<path d="M159.267 40.9012V41.6904H154.994V36.3755H159.215V37.1646H156.029V38.589H159.068V39.3782H156.029V40.9131L159.267 40.9012Z" fill="white"/>
<path d="M159.267 41.7061H154.994V36.3755H159.215V37.1646H156.053V38.5693H159.083V39.3584H156.053V40.8775H159.267V41.6667V41.7061ZM155.002 41.7061H159.259V40.917H156.045V39.3663H159.075V38.6166H156.045V37.1686H159.203V36.3794H155.002V41.7061Z" fill="white"/>
</g>
</g>
<defs>
<clipPath id="clip0_101_2">
<rect width="176" height="50" fill="white"/>
</clipPath>
</defs>
</svg>
